<svg aria-hidden="true" style="width:0;height:0;position:absolute;overflow:hidden" xmlns="http://www.w3.org/2000/svg"><defs><symbol id="icon-button-arrow-white" viewBox="0 0 26 32"><path fill="none" stroke="#fff" style="stroke:var(--color1,#fff)" stroke-linejoin="round" stroke-linecap="round" stroke-width="6.4" d="M5.171 3.2 19.341 16 5.171 28.8"/></symbol><symbol id="icon-cross" viewBox="0 0 32 32"><path d="M31.708 25.708 22 16l9.708-9.708a1 1 0 0 0 0-1.414L27.122.292a1 1 0 0 0-1.414-.001L16 9.999 6.292.291a.998.998 0 0 0-1.414.001L.292 4.878a1 1 0 0 0 0 1.414L10 16 .292 25.708a.999.999 0 0 0 0 1.414l4.586 4.586a1 1 0 0 0 1.414 0L16 22l9.708 9.708a1 1 0 0 0 1.414 0l4.586-4.586a.999.999 0 0 0 0-1.414z"/></symbol><symbol id="icon-cancel" viewBox="0 0 32 32"><path d="m19.587 16.001 6.096 6.096a1.015 1.015 0 0 1 0 1.435l-2.151 2.151a1.015 1.015 0 0 1-1.435 0L16 19.587l-6.097 6.096a1.014 1.014 0 0 1-1.434 0l-2.152-2.151a1.015 1.015 0 0 1 0-1.435l6.097-6.096-6.097-6.097a1.015 1.015 0 0 1 0-1.435L8.47 6.318a1.014 1.014 0 0 1 1.434 0L16 12.415l6.097-6.097a1.015 1.015 0 0 1 1.435 0l2.151 2.152a1.015 1.015 0 0 1 0 1.435l-6.096 6.096z"/></symbol></defs></svg>