<svg aria-hidden="true" style="width:0;height:0;position:absolute;overflow:hidden" xmlns="http://www.w3.org/2000/svg"><defs><symbol id="icon-slider-icon" viewBox="0 0 43 32"><path fill="#e1e1e1" style="fill:var(--color1,#e1e1e1)" d="M32.014 0c1.929 0 3.75.52 5.464 1.561s3.107 2.537 4.179 4.488C42.686 8 43.2 10.298 43.2 12.943s-.643 5.225-1.929 7.74c-.429.911-1.2 2.081-2.314 3.512a63.368 63.368 0 0 1-3.214 3.707L31.693 32 28.8 27.187a22.03 22.03 0 0 0 5.336-4.683c1.543-1.821 2.314-3.491 2.314-5.008 0-.78-.171-1.409-.514-1.886a8.359 8.359 0 0 1-5.014 1.626c-1.329 0-2.593-.412-3.793-1.236a8.555 8.555 0 0 1-2.957-3.122c-.771-1.258-1.157-2.558-1.157-3.902 0-1.518.45-2.97 1.35-4.358a10.222 10.222 0 0 1 3.407-3.382C29.143.412 30.558 0 32.015 0zM8.936 0c1.929 0 3.75.52 5.464 1.561s3.107 2.537 4.179 4.488c1.029 1.951 1.543 4.249 1.543 6.894 0 1.864-.236 3.534-.707 5.008-.471 1.518-1.286 3.1-2.443 4.748-1.114 1.561-2.164 2.862-3.15 3.902-.986 1.084-2.7 2.884-5.143 5.398l-2.893-4.813a22.03 22.03 0 0 0 5.336-4.683c1.543-1.821 2.314-3.491 2.314-5.008 0-.78-.171-1.409-.514-1.886a8.359 8.359 0 0 1-5.014 1.626c-1.329 0-2.593-.412-3.793-1.236a8.555 8.555 0 0 1-2.957-3.122C.387 11.619.001 10.319.001 8.975c0-1.518.429-2.97 1.286-4.358S3.28 2.102 4.694 1.235C6.065.411 7.48-.001 8.937-.001z"/></symbol><symbol id="icon-header-logo" viewBox="0 0 127 32"><path fill="#d41442" style="fill:var(--color1,#d41442)" d="M32 16c0 8.837-7.163 16-16 16S0 24.837 0 16 7.163 0 16 0s16 7.163 16 16z"/><path fill="#fff" style="fill:var(--color2,#fff)" d="M10.24 28.16h1.28V32h-1.28v-3.84zM20.48 28.16h1.28V32h-1.28v-3.84z"/><path fill="#fff" style="fill:var(--color2,#fff)" d="M10.748 28.8h1.854v-1.28h-1.854v1.28zm8.651 0h1.854v-1.28h-1.854v1.28zm0-1.28h-6.797v1.28h6.797v-1.28zm-8.651 0c-1.673 0-3.068-1.411-3.068-3.2H6.4c0 2.453 1.926 4.48 4.348 4.48v-1.28zm13.572-3.2c0 1.789-1.394 3.2-3.068 3.2v1.28c2.422 0 4.348-2.027 4.348-4.48h-1.28zm0-4.004v4.004h1.28v-4.004h-1.28zM7.68 24.32v-4.004H6.4v4.004h1.28zM23.29 8.703zm-14.58 0zM16 5.76c2.802 0 5.272 1.318 6.778 3.327l1.024-.768c-1.745-2.33-4.594-3.84-7.802-3.84v1.28zm6.778 3.327a7.634 7.634 0 0 1 1.542 4.596h1.28a8.908 8.908 0 0 0-1.798-5.363l-1.024.768zM16 4.48c-3.208 0-6.057 1.51-7.802 3.84l1.024.768C10.728 7.079 13.198 5.761 16 5.761v-1.28zM8.198 8.32A8.91 8.91 0 0 0 6.4 13.683h1.28c0-1.712.57-3.298 1.542-4.596l-1.024-.768zm-.518 6.4v-1.037H6.4v1.037h1.28zm16.64-1.037v1.037h1.28v-1.037h-1.28zM6.4 14.72v.96h1.28v-.96H6.4zm17.92 0v.96h1.28v-.96h-1.28z"/><path fill="#fff" style="fill:var(--color2,#fff)" d="M22.471 8.027c-1.28 2.486-3.712 4.133-6.471 4.133v1.28c3.294 0 6.136-1.967 7.609-4.827l-1.138-.586zM16 12.16c-2.759 0-5.191-1.648-6.471-4.133l-1.138.586c1.473 2.86 4.315 4.827 7.609 4.827v-1.28z"/><path fill="none" stroke="#fff" style="stroke:var(--color2,#fff)" stroke-width="1.28" d="M7.36 19.84h9.92v1.92c0 1.28.64 1.92 1.6 1.92s1.6-.64 1.6-1.92v-1.92h3.84c2.56 0 2.56-1.92 2.56-2.24 0-.32 0-2.24-2.56-2.24"/><path fill="none" stroke="#fff" style="stroke:var(--color2,#fff)" stroke-width="1.28" d="M7.68 19.84c-2.56 0-2.56-1.92-2.56-2.24s0-2.24 2.56-2.24h16.64"/><path fill="#d41442" style="fill:var(--color1,#d41442)" d="M47.14 21.391c0 .113-.312.205-.937.276-.625.061-1.254.092-1.889.092-.625 0-1.024-.026-1.198-.077-.174-.061-.261-.159-.261-.292v-9.554c0-.225.297-.445.891-.66.594-.225 1.26-.338 1.997-.338.655 0 1.085.138 1.29.415a.531.531 0 0 1 .108.307v9.83zm9.544.261c-.41.092-.829.154-1.26.184-.42.041-.835.061-1.244.061-.399 0-.712-.01-.937-.031-.215-.02-.502-.072-.86-.154s-.686-.195-.983-.338a4.867 4.867 0 0 1-.952-.63 3.825 3.825 0 0 1-.829-.983c-.522-.881-.783-2.017-.783-3.41 0-.932.143-1.756.43-2.473.297-.717.65-1.27 1.06-1.659a5.17 5.17 0 0 1 1.428-.937c.86-.389 1.725-.584 2.596-.584 1.249 0 2.145.102 2.688.307.246.092.466.236.66.43s.292.476.292.845-.092.835-.276 1.398c-.174.563-.43.845-.768.845-.102 0-.481-.082-1.137-.246s-1.101-.246-1.336-.246c-.358 0-.666.2-.922.599-.246.399-.369.968-.369 1.705s.108 1.311.323 1.72c.225.41.517.614.876.614.256 0 .717-.102 1.382-.307.676-.215 1.07-.323 1.183-.323.317 0 .563.292.737.876.184.584.276 1.055.276 1.413s-.113.645-.338.86c-.215.205-.527.358-.937.461zm10.787.108h-6.513c-.502 0-.84-.036-1.014-.108s-.261-.184-.261-.338v-9.723c0-.266.118-.456.353-.568.246-.113.681-.169 1.306-.169h6.175c.215 0 .323.358.323 1.075 0 .707-.046 1.249-.138 1.628-.092.369-.215.553-.369.553-.666 0-1.787-.067-3.364-.2v1.029a96.486 96.486 0 0 1 2.964-.092c.276 0 .415.323.415.968s-.056 1.137-.169 1.475c-.102.328-.246.492-.43.492l-2.78-.061v.983c1.782-.133 3.011-.2 3.686-.2.215 0 .323.358.323 1.075s-.046 1.26-.138 1.628c-.092.369-.215.553-.369.553zm9.897-.108c-.41.092-.829.154-1.26.184-.42.041-.835.061-1.244.061-.399 0-.712-.01-.937-.031-.215-.02-.502-.072-.86-.154s-.686-.195-.983-.338a4.867 4.867 0 0 1-.952-.63 3.825 3.825 0 0 1-.829-.983c-.522-.881-.783-2.017-.783-3.41 0-.932.143-1.756.43-2.473.297-.717.65-1.27 1.06-1.659a5.17 5.17 0 0 1 1.428-.937c.86-.389 1.725-.584 2.596-.584 1.249 0 2.145.102 2.688.307.246.092.466.236.66.43s.292.476.292.845-.092.835-.276 1.398c-.174.563-.43.845-.768.845-.102 0-.481-.082-1.137-.246s-1.101-.246-1.336-.246c-.358 0-.666.2-.922.599-.246.399-.369.968-.369 1.705s.108 1.311.323 1.72c.225.41.517.614.876.614.256 0 .717-.102 1.382-.307.676-.215 1.07-.323 1.183-.323.317 0 .563.292.737.876.184.584.276 1.055.276 1.413s-.113.645-.338.86c-.215.205-.527.358-.937.461zm7.3-.337c0 .133-.312.241-.937.323s-1.254.123-1.889.123c-.625 0-1.029-.036-1.213-.108-.174-.072-.261-.184-.261-.338v-9.876c0-.266.333-.456.998-.568.676-.113 1.526-.169 2.55-.169s1.684.005 1.981.015c.307 0 .666.015 1.075.046s.732.082.968.154c.246.072.512.164.799.276.297.113.527.261.691.445.164.174.323.384.476.63.276.44.415 1.07.415 1.889 0 .809-.138 1.495-.415 2.058-.266.553-.625.973-1.075 1.26 1.178 1.853 1.766 3.031 1.766 3.533s-1.009.753-3.026.753c-.584 0-.988-.026-1.213-.077s-.369-.164-.43-.338l-.998-3.164-.261-.015v3.149zm0-5.515h.399c.594 0 .891-.461.891-1.382 0-.471-.082-.804-.246-.998-.154-.195-.333-.292-.538-.292h-.507v2.673zm15.096 5.96h-6.513c-.502 0-.84-.036-1.014-.108s-.261-.184-.261-.338v-9.723c0-.266.118-.456.353-.568.246-.113.681-.169 1.306-.169h6.175c.215 0 .323.358.323 1.075 0 .707-.046 1.249-.138 1.628-.092.369-.215.553-.369.553-.666 0-1.787-.067-3.364-.2v1.029a96.486 96.486 0 0 1 2.964-.092c.276 0 .415.323.415.968s-.056 1.137-.169 1.475c-.102.328-.246.492-.43.492l-2.78-.061v.983c1.782-.133 3.011-.2 3.686-.2.215 0 .323.358.323 1.075s-.046 1.26-.138 1.628c-.092.369-.215.553-.369.553zm6.441-.783c-.02.297-.179.502-.476.614-.287.113-.809.169-1.567.169s-1.393-.067-1.905-.2c-.502-.143-.753-.323-.753-.538 0-.246.456-1.812 1.367-4.7a950.611 950.611 0 0 0 1.567-5.007c.051-.133.461-.241 1.229-.323a21.227 21.227 0 0 1 2.488-.138c.891 0 1.382.154 1.475.461 1.935 6.431 2.903 9.697 2.903 9.8s-.061.205-.184.307c-.287.225-.855.338-1.705.338-1.812 0-2.739-.215-2.78-.645l-.108-.998h-1.475l-.077.86zm1.229-3.779-.23-2.765h-.338l-.261 2.765h.829zm8.851 4.562h-1.121c-.481 0-.809-.036-.983-.108s-.261-.184-.261-.338v-9.692c0-.236.312-.42.937-.553.635-.143 1.311-.215 2.028-.215s1.229.092 1.536.276c.307.184.486.379.538.584l1.044 4.055h.138l.983-3.871c.072-.276.404-.517.998-.722.604-.215 1.265-.323 1.981-.323s1.244.056 1.582.169c.348.113.522.256.522.43v9.861c0 .133-.292.241-.876.323s-1.295.123-2.135.123c-.84 0-1.26-.148-1.26-.445 0-.809.087-2.248.261-4.316h-.138l-.799 4.009c-.031.154-.159.266-.384.338-.215.072-.543.108-.983.108s-.712-.031-.814-.092c-.092-.061-.154-.179-.184-.353l-.829-4.009h-.138c.184 2.109.276 3.548.276 4.316 0 .266-.64.415-1.92.445z"/></symbol><symbol id="icon-burger" viewBox="0 0 46 32"><path fill="none" stroke="#d41443" style="stroke:var(--color1,#d41443)" stroke-width="2.286" d="M0 2.286h45.714M0 16h45.714M0 29.714h45.714"/></symbol><symbol id="icon-facebook" viewBox="0 0 32 32"><path d="M20.446 15.982h-2.61v9.619h-3.955v-9.619H12v-3.38h1.881v-2.187c0-1.564.739-4.014 3.99-4.014l2.929.012v3.281h-2.125c-.349 0-.839.175-.839.921v1.989h2.955l-.346 3.377z"/></symbol><symbol id="icon-telegram" viewBox="0 0 32 32"><path d="m12.867 18.375-.318 4.169c.454 0 .651-.182.887-.401l2.13-1.9 4.415 3.017c.81.421 1.38.199 1.598-.695l2.898-12.673c.257-1.117-.433-1.554-1.222-1.28L6.223 14.698c-1.162.421-1.145 1.026-.198 1.3l4.354 1.264 10.115-5.907c.476-.294.909-.131.553.163l-8.182 6.857z"/></symbol><symbol id="icon-github" viewBox="0 0 32 32"><path d="M16 6.588c-5.169 0-9.412 4.242-9.412 9.412 0 4.411 3.095 8.419 7.206 9.412v-3.114a2.307 2.307 0 0 1-1.197-.03c-.556-.164-1.008-.535-1.344-1.1-.214-.361-.593-.752-.988-.723l-.097-1.099c.855-.073 1.595.521 2.034 1.259.195.328.419.52.708.605.278.082.578.043.926-.08.088-.698.407-.959.648-1.326v-.001c-2.451-.366-3.428-1.666-3.816-2.693-.514-1.363-.238-3.066.671-4.142.018-.021.05-.076.037-.114-.417-1.258.091-2.299.11-2.41.481.142.559-.143 2.089.786l.264.159c.111.066.076.028.186.02A8.031 8.031 0 0 1 16 11.131a8.016 8.016 0 0 1 2.002.285l.086.009c-.007-.001.023-.005.075-.036 1.911-1.157 1.842-.779 2.355-.946.019.111.519 1.169.107 2.411-.056.171 1.657 1.739.708 4.256-.388 1.027-1.365 2.328-3.816 2.693v.001c.314.479.692.734.69 1.722v3.887c4.111-.993 7.206-5 7.206-9.412 0-5.169-4.242-9.412-9.412-9.412z"/></symbol><symbol id="icon-check-box" viewBox="0 0 32 32"><path d="m7.914 15.503-.138-.131-2.067 1.958 7.282 6.947L28.289 9.683l-2.053-1.959-13.245 12.623-5.077-4.844z"/></symbol><symbol id="icon-close" viewBox="0 0 32 32"><path stroke-miterlimit="44" d="m2.519 2 26.963 28M2 29.481 30 2.518"/></symbol><symbol id="icon-house" viewBox="0 0 32 32"><path fill="#d31342" style="fill:var(--color3,#d31342)" d="M31.599 16.766c.58-.595.524-1.507-.125-2.037L17.173 3.056c-.649-.53-1.69-.518-2.325.025L.498 15.351c-.635.543-.667 1.454-.069 2.034l.36.35c.597.579 1.562.648 2.154.154l1.072-.896v13.116c0 .805.699 1.456 1.561 1.456h5.594c.862 0 1.561-.651 1.561-1.456v-9.176h7.135v9.176c-.012.804.604 1.455 1.466 1.455h5.928c.862 0 1.561-.651 1.561-1.456v-12.93l.662.542c.366.3 1.131.059 1.711-.536l.407-.417z"/></symbol><symbol id="icon-arrow" viewBox="0 0 32 32"><path fill="#fff" style="fill:var(--color2,#fff)" d="M32 16c0 8.837-7.163 16-16 16S0 24.837 0 16 7.163 0 16 0s16 7.163 16 16z"/><path fill="#d41442" style="fill:var(--color4,#d41442)" d="M12.308 15.261h-.738v1.477h.738v-1.477zm7.384.739.567.473a.738.738 0 0 0 0-.945l-.567.473zm-2.509-4.165a.739.739 0 0 0-1.135.945l1.135-.946zm-1.135 7.385a.738.738 0 1 0 1.135.945l-1.135-.945zm-3.74-2.482h7.385v-1.477h-7.385v1.477zm7.952-1.211-3.077-3.692-1.135.946 3.077 3.692 1.135-.945zm-1.135 0-3.077 3.692 1.135.945 3.077-3.692-1.135-.945z"/></symbol><symbol id="icon-arrow-only-arrow" viewBox="0 0 32 32"><path d="M12.308 15.261h-.738v1.477h.738v-1.477zm7.384.739.567.473a.738.738 0 0 0 0-.945l-.567.473zm-2.509-4.165a.739.739 0 0 0-1.135.945l1.135-.946zm-1.135 7.385a.738.738 0 1 0 1.135.945l-1.135-.945zm-3.74-2.482h7.385v-1.477h-7.385v1.477zm7.952-1.211-3.077-3.692-1.135.946 3.077 3.692 1.135-.945zm-1.135 0-3.077 3.692 1.135.945 3.077-3.692-1.135-.945z"/></symbol><symbol id="icon-logo" viewBox="0 0 127 32"><path fill="#d41442" style="fill:var(--color4,#d41442)" d="M32 16c0 8.837-7.163 16-16 16S0 24.837 0 16 7.163 0 16 0s16 7.163 16 16z"/><path fill="#fff" style="fill:var(--color2,#fff)" d="M10.24 28.16h1.28V32h-1.28v-3.84zM20.48 28.16h1.28V32h-1.28v-3.84z"/><path fill="#fff" style="fill:var(--color2,#fff)" d="M10.748 28.8h1.854v-1.28h-1.854v1.28zm8.651 0h1.854v-1.28h-1.854v1.28zm0-1.28h-6.797v1.28h6.797v-1.28zm-8.651 0c-1.673 0-3.068-1.411-3.068-3.2H6.4c0 2.453 1.926 4.48 4.348 4.48v-1.28zm13.572-3.2c0 1.789-1.394 3.2-3.068 3.2v1.28c2.422 0 4.348-2.027 4.348-4.48h-1.28zm0-4.004v4.004h1.28v-4.004h-1.28zM7.68 24.32v-4.004H6.4v4.004h1.28zM23.29 8.703zm-14.58 0zM16 5.76c2.802 0 5.272 1.318 6.778 3.327l1.024-.768c-1.745-2.33-4.594-3.84-7.802-3.84v1.28zm6.778 3.327a7.634 7.634 0 0 1 1.542 4.596h1.28a8.908 8.908 0 0 0-1.798-5.363l-1.024.768zM16 4.48c-3.208 0-6.057 1.51-7.802 3.84l1.024.768C10.728 7.079 13.198 5.761 16 5.761v-1.28zM8.198 8.32A8.91 8.91 0 0 0 6.4 13.683h1.28c0-1.712.57-3.298 1.542-4.596l-1.024-.768zm-.518 6.4v-1.037H6.4v1.037h1.28zm16.64-1.037v1.037h1.28v-1.037h-1.28zM6.4 14.72v.96h1.28v-.96H6.4zm17.92 0v.96h1.28v-.96h-1.28z"/><path fill="#fff" style="fill:var(--color2,#fff)" d="M22.471 8.027c-1.28 2.486-3.712 4.133-6.471 4.133v1.28c3.294 0 6.136-1.967 7.609-4.827l-1.138-.586zM16 12.16c-2.759 0-5.191-1.648-6.471-4.133l-1.138.586c1.473 2.86 4.315 4.827 7.609 4.827v-1.28z"/><path fill="#fff" style="fill:var(--color2,#fff)" d="M6.455 14.884zm19.09 0zm0 5.432zm-19.09 0zm14.665.164V19.2h-1.28v1.28h1.28zm-4.48 0h1.28V19.2h-1.28v1.28zM7.442 16h17.115v-2.56H7.442V16zm0-2.56c-.489 0-.962.082-1.403.233l.832 2.421A1.74 1.74 0 0 1 7.442 16v-2.56zm-1.403.233C4.406 14.234 3.2 15.764 3.2 17.6h2.56c0-.672.443-1.276 1.111-1.506l-.832-2.421zM24.558 16c.203 0 .395.034.571.094l.832-2.421a4.301 4.301 0 0 0-1.403-.233V16zm.571.094c.668.23 1.111.834 1.111 1.506h2.56c0-1.836-1.206-3.365-2.839-3.927l-.832 2.421zM26.24 17.6c0 .672-.443 1.276-1.111 1.506l.832 2.421c1.633-.561 2.839-2.091 2.839-3.927h-2.56zm-1.111 1.506a1.74 1.74 0 0 1-.571.094v2.56c.489 0 .962-.082 1.403-.233l-.832-2.421zM7.442 19.2c-.203 0-.395-.034-.571-.094l-.832 2.421c.441.152.914.233 1.403.233V19.2zm-.571-.094c-.668-.23-1.111-.834-1.111-1.506H3.2c0 1.836 1.206 3.365 2.839 3.927l.832-2.421zM19.84 20.48v1.371h2.56V20.48h-2.56zm-1.92 1.371V20.48h-2.56v1.371h2.56zm.96 1.189c-.416 0-.96-.412-.96-1.189h-2.56c0 1.95 1.462 3.749 3.52 3.749v-2.56zm.96-1.189c0 .776-.544 1.189-.96 1.189v2.56c2.058 0 3.52-1.798 3.52-3.749h-2.56zm1.28-.091h3.438V19.2H21.12v2.56zm-4.48-2.56H7.442v2.56h9.198V19.2z"/><path fill="#d41442" style="fill:var(--color4,#d41442)" d="M47.14 21.391c0 .113-.312.205-.937.276-.625.061-1.254.092-1.889.092-.625 0-1.024-.026-1.198-.077-.174-.061-.261-.159-.261-.292v-9.554c0-.225.297-.445.891-.66.594-.225 1.26-.338 1.997-.338.655 0 1.085.138 1.29.415a.531.531 0 0 1 .108.307v9.83zm9.544.261c-.41.092-.829.154-1.26.184-.42.041-.835.061-1.244.061-.399 0-.712-.01-.937-.031-.215-.02-.502-.072-.86-.154s-.686-.195-.983-.338a4.867 4.867 0 0 1-.952-.63 3.825 3.825 0 0 1-.829-.983c-.522-.881-.783-2.017-.783-3.41 0-.932.143-1.756.43-2.473.297-.717.65-1.27 1.06-1.659a5.17 5.17 0 0 1 1.428-.937c.86-.389 1.725-.584 2.596-.584 1.249 0 2.145.102 2.688.307.246.092.466.236.66.43s.292.476.292.845-.092.835-.276 1.398c-.174.563-.43.845-.768.845-.102 0-.481-.082-1.137-.246s-1.101-.246-1.336-.246c-.358 0-.666.2-.922.599-.246.399-.369.968-.369 1.705s.108 1.311.323 1.72c.225.41.517.614.876.614.256 0 .717-.102 1.382-.307.676-.215 1.07-.323 1.183-.323.317 0 .563.292.737.876.184.584.276 1.055.276 1.413s-.113.645-.338.86c-.215.205-.527.358-.937.461zm10.787.108h-6.513c-.502 0-.84-.036-1.014-.108s-.261-.184-.261-.338v-9.723c0-.266.118-.456.353-.568.246-.113.681-.169 1.306-.169h6.175c.215 0 .323.358.323 1.075 0 .707-.046 1.249-.138 1.628-.092.369-.215.553-.369.553-.666 0-1.787-.067-3.364-.2v1.029a96.486 96.486 0 0 1 2.964-.092c.276 0 .415.323.415.968s-.056 1.137-.169 1.475c-.102.328-.246.492-.43.492l-2.78-.061v.983c1.782-.133 3.011-.2 3.686-.2.215 0 .323.358.323 1.075s-.046 1.26-.138 1.628c-.092.369-.215.553-.369.553zm9.897-.108c-.41.092-.829.154-1.26.184-.42.041-.835.061-1.244.061-.399 0-.712-.01-.937-.031-.215-.02-.502-.072-.86-.154s-.686-.195-.983-.338a4.867 4.867 0 0 1-.952-.63 3.825 3.825 0 0 1-.829-.983c-.522-.881-.783-2.017-.783-3.41 0-.932.143-1.756.43-2.473.297-.717.65-1.27 1.06-1.659a5.17 5.17 0 0 1 1.428-.937c.86-.389 1.725-.584 2.596-.584 1.249 0 2.145.102 2.688.307.246.092.466.236.66.43s.292.476.292.845-.092.835-.276 1.398c-.174.563-.43.845-.768.845-.102 0-.481-.082-1.137-.246s-1.101-.246-1.336-.246c-.358 0-.666.2-.922.599-.246.399-.369.968-.369 1.705s.108 1.311.323 1.72c.225.41.517.614.876.614.256 0 .717-.102 1.382-.307.676-.215 1.07-.323 1.183-.323.317 0 .563.292.737.876.184.584.276 1.055.276 1.413s-.113.645-.338.86c-.215.205-.527.358-.937.461zm7.3-.337c0 .133-.312.241-.937.323s-1.254.123-1.889.123c-.625 0-1.029-.036-1.213-.108-.174-.072-.261-.184-.261-.338v-9.876c0-.266.333-.456.998-.568.676-.113 1.526-.169 2.55-.169s1.684.005 1.981.015c.307 0 .666.015 1.075.046s.732.082.968.154c.246.072.512.164.799.276.297.113.527.261.691.445.164.174.323.384.476.63.276.44.415 1.07.415 1.889 0 .809-.138 1.495-.415 2.058-.266.553-.625.973-1.075 1.26 1.178 1.853 1.766 3.031 1.766 3.533s-1.009.753-3.026.753c-.584 0-.988-.026-1.213-.077s-.369-.164-.43-.338l-.998-3.164-.261-.015v3.149zm0-5.515h.399c.594 0 .891-.461.891-1.382 0-.471-.082-.804-.246-.998-.154-.195-.333-.292-.538-.292h-.507v2.673zm15.096 5.96h-6.513c-.502 0-.84-.036-1.014-.108s-.261-.184-.261-.338v-9.723c0-.266.118-.456.353-.568.246-.113.681-.169 1.306-.169h6.175c.215 0 .323.358.323 1.075 0 .707-.046 1.249-.138 1.628-.092.369-.215.553-.369.553-.666 0-1.787-.067-3.364-.2v1.029a96.486 96.486 0 0 1 2.964-.092c.276 0 .415.323.415.968s-.056 1.137-.169 1.475c-.102.328-.246.492-.43.492l-2.78-.061v.983c1.782-.133 3.011-.2 3.686-.2.215 0 .323.358.323 1.075s-.046 1.26-.138 1.628c-.092.369-.215.553-.369.553zm6.441-.783c-.02.297-.179.502-.476.614-.287.113-.809.169-1.567.169s-1.393-.067-1.905-.2c-.502-.143-.753-.323-.753-.538 0-.246.456-1.812 1.367-4.7a950.611 950.611 0 0 0 1.567-5.007c.051-.133.461-.241 1.229-.323a21.227 21.227 0 0 1 2.488-.138c.891 0 1.382.154 1.475.461 1.935 6.431 2.903 9.697 2.903 9.8s-.061.205-.184.307c-.287.225-.855.338-1.705.338-1.812 0-2.739-.215-2.78-.645l-.108-.998h-1.475l-.077.86zm1.229-3.779-.23-2.765h-.338l-.261 2.765h.829zm8.851 4.562h-1.121c-.481 0-.809-.036-.983-.108s-.261-.184-.261-.338v-9.692c0-.236.312-.42.937-.553.635-.143 1.311-.215 2.028-.215s1.229.092 1.536.276c.307.184.486.379.538.584l1.044 4.055h.138l.983-3.871c.072-.276.404-.517.998-.722.604-.215 1.265-.323 1.981-.323s1.244.056 1.582.169c.348.113.522.256.522.43v9.861c0 .133-.292.241-.876.323s-1.295.123-2.135.123c-.84 0-1.26-.148-1.26-.445 0-.809.087-2.248.261-4.316h-.138l-.799 4.009c-.031.154-.159.266-.384.338-.215.072-.543.108-.983.108s-.712-.031-.814-.092c-.092-.061-.154-.179-.184-.353l-.829-4.009h-.138c.184 2.109.276 3.548.276 4.316 0 .266-.64.415-1.92.445z"/></symbol><symbol id="icon-button-arrow" viewBox="0 0 26 32"><path fill="none" stroke="#d41443" style="stroke:var(--color1,#d41443)" stroke-linejoin="round" stroke-linecap="round" stroke-width="6.4" d="M5.172 3.2 19.341 16 5.172 28.8"/></symbol><symbol id="icon-slider-dots" viewBox="0 0 256 32"><path fill="#c7133e" style="fill:var(--color1,#c7133e)" d="M144 16c0 8.837-7.163 16-16 16s-16-7.163-16-16 7.163-16 16-16 16 7.163 16 16zM32 16c0 8.837-7.163 16-16 16S0 24.837 0 16 7.163 0 16 0s16 7.163 16 16zM256 16c0 8.837-7.163 16-16 16s-16-7.163-16-16 7.163-16 16-16 16 7.163 16 16z"/></symbol></defs></svg>