<svg aria-hidden="true" style="width:0;height:0;position:absolute;overflow:hidden" xmlns="http://www.w3.org/2000/svg"><defs><symbol id="icon-slider-icon" viewBox="0 0 43 32"><path fill="#e1e1e1" style="fill:var(--color1,#e1e1e1)" d="M32.014 0c1.929 0 3.75.52 5.464 1.561s3.107 2.537 4.179 4.488C42.686 8 43.2 10.298 43.2 12.943s-.643 5.225-1.929 7.74c-.429.911-1.2 2.081-2.314 3.512a63.368 63.368 0 0 1-3.214 3.707L31.693 32 28.8 27.187a22.03 22.03 0 0 0 5.336-4.683c1.543-1.821 2.314-3.491 2.314-5.008 0-.78-.171-1.409-.514-1.886a8.359 8.359 0 0 1-5.014 1.626c-1.329 0-2.593-.412-3.793-1.236a8.555 8.555 0 0 1-2.957-3.122c-.771-1.258-1.157-2.558-1.157-3.902 0-1.518.45-2.97 1.35-4.358a10.222 10.222 0 0 1 3.407-3.382C29.143.412 30.558 0 32.015 0zM8.936 0c1.929 0 3.75.52 5.464 1.561s3.107 2.537 4.179 4.488c1.029 1.951 1.543 4.249 1.543 6.894 0 1.864-.236 3.534-.707 5.008-.471 1.518-1.286 3.1-2.443 4.748-1.114 1.561-2.164 2.862-3.15 3.902-.986 1.084-2.7 2.884-5.143 5.398l-2.893-4.813a22.03 22.03 0 0 0 5.336-4.683c1.543-1.821 2.314-3.491 2.314-5.008 0-.78-.171-1.409-.514-1.886a8.359 8.359 0 0 1-5.014 1.626c-1.329 0-2.593-.412-3.793-1.236a8.555 8.555 0 0 1-2.957-3.122C.387 11.619.001 10.319.001 8.975c0-1.518.429-2.97 1.286-4.358S3.28 2.102 4.694 1.235C6.065.411 7.48-.001 8.937-.001z"/></symbol><symbol id="icon-header-logo" viewBox="0 0 127 32"><path fill="#d41442" style="fill:var(--color1,#d41442)" d="M32 16c0 8.837-7.163 16-16 16S0 24.837 0 16 7.163 0 16 0s16 7.163 16 16z"/><path fill="#fff" style="fill:var(--color2,#fff)" d="M10.24 28.16h1.28V32h-1.28v-3.84zM20.48 28.16h1.28V32h-1.28v-3.84z"/><path fill="#fff" style="fill:var(--color2,#fff)" d="M10.748 28.8h1.854v-1.28h-1.854v1.28zm8.651 0h1.854v-1.28h-1.854v1.28zm0-1.28h-6.797v1.28h6.797v-1.28zm-8.651 0c-1.673 0-3.068-1.411-3.068-3.2H6.4c0 2.453 1.926 4.48 4.348 4.48v-1.28zm13.572-3.2c0 1.789-1.394 3.2-3.068 3.2v1.28c2.422 0 4.348-2.027 4.348-4.48h-1.28zm0-4.004v4.004h1.28v-4.004h-1.28zM7.68 24.32v-4.004H6.4v4.004h1.28zM23.29 8.703zm-14.58 0zM16 5.76c2.802 0 5.272 1.318 6.778 3.327l1.024-.768c-1.745-2.33-4.594-3.84-7.802-3.84v1.28zm6.778 3.327a7.634 7.634 0 0 1 1.542 4.596h1.28a8.908 8.908 0 0 0-1.798-5.363l-1.024.768zM16 4.48c-3.208 0-6.057 1.51-7.802 3.84l1.024.768C10.728 7.079 13.198 5.761 16 5.761v-1.28zM8.198 8.32A8.91 8.91 0 0 0 6.4 13.683h1.28c0-1.712.57-3.298 1.542-4.596l-1.024-.768zm-.518 6.4v-1.037H6.4v1.037h1.28zm16.64-1.037v1.037h1.28v-1.037h-1.28zM6.4 14.72v.96h1.28v-.96H6.4zm17.92 0v.96h1.28v-.96h-1.28z"/><path fill="#fff" style="fill:var(--color2,#fff)" d="M22.471 8.027c-1.28 2.486-3.712 4.133-6.471 4.133v1.28c3.294 0 6.136-1.967 7.609-4.827l-1.138-.586zM16 12.16c-2.759 0-5.191-1.648-6.471-4.133l-1.138.586c1.473 2.86 4.315 4.827 7.609 4.827v-1.28z"/><path fill="none" stroke="#fff" style="stroke:var(--color2,#fff)" stroke-width="1.28" d="M7.36 19.84h9.92v1.92c0 1.28.64 1.92 1.6 1.92s1.6-.64 1.6-1.92v-1.92h3.84c2.56 0 2.56-1.92 2.56-2.24 0-.32 0-2.24-2.56-2.24"/><path fill="none" stroke="#fff" style="stroke:var(--color2,#fff)" stroke-width="1.28" d="M7.68 19.84c-2.56 0-2.56-1.92-2.56-2.24s0-2.24 2.56-2.24h16.64"/><path fill="#d41442" style="fill:var(--color1,#d41442)" d="M47.14 21.391c0 .113-.312.205-.937.276-.625.061-1.254.092-1.889.092-.625 0-1.024-.026-1.198-.077-.174-.061-.261-.159-.261-.292v-9.554c0-.225.297-.445.891-.66.594-.225 1.26-.338 1.997-.338.655 0 1.085.138 1.29.415a.531.531 0 0 1 .108.307v9.83zm9.544.261c-.41.092-.829.154-1.26.184-.42.041-.835.061-1.244.061-.399 0-.712-.01-.937-.031-.215-.02-.502-.072-.86-.154s-.686-.195-.983-.338a4.867 4.867 0 0 1-.952-.63 3.825 3.825 0 0 1-.829-.983c-.522-.881-.783-2.017-.783-3.41 0-.932.143-1.756.43-2.473.297-.717.65-1.27 1.06-1.659a5.17 5.17 0 0 1 1.428-.937c.86-.389 1.725-.584 2.596-.584 1.249 0 2.145.102 2.688.307.246.092.466.236.66.43s.292.476.292.845-.092.835-.276 1.398c-.174.563-.43.845-.768.845-.102 0-.481-.082-1.137-.246s-1.101-.246-1.336-.246c-.358 0-.666.2-.922.599-.246.399-.369.968-.369 1.705s.108 1.311.323 1.72c.225.41.517.614.876.614.256 0 .717-.102 1.382-.307.676-.215 1.07-.323 1.183-.323.317 0 .563.292.737.876.184.584.276 1.055.276 1.413s-.113.645-.338.86c-.215.205-.527.358-.937.461zm10.787.108h-6.513c-.502 0-.84-.036-1.014-.108s-.261-.184-.261-.338v-9.723c0-.266.118-.456.353-.568.246-.113.681-.169 1.306-.169h6.175c.215 0 .323.358.323 1.075 0 .707-.046 1.249-.138 1.628-.092.369-.215.553-.369.553-.666 0-1.787-.067-3.364-.2v1.029a96.486 96.486 0 0 1 2.964-.092c.276 0 .415.323.415.968s-.056 1.137-.169 1.475c-.102.328-.246.492-.43.492l-2.78-.061v.983c1.782-.133 3.011-.2 3.686-.2.215 0 .323.358.323 1.075s-.046 1.26-.138 1.628c-.092.369-.215.553-.369.553zm9.897-.108c-.41.092-.829.154-1.26.184-.42.041-.835.061-1.244.061-.399 0-.712-.01-.937-.031-.215-.02-.502-.072-.86-.154s-.686-.195-.983-.338a4.867 4.867 0 0 1-.952-.63 3.825 3.825 0 0 1-.829-.983c-.522-.881-.783-2.017-.783-3.41 0-.932.143-1.756.43-2.473.297-.717.65-1.27 1.06-1.659a5.17 5.17 0 0 1 1.428-.937c.86-.389 1.725-.584 2.596-.584 1.249 0 2.145.102 2.688.307.246.092.466.236.66.43s.292.476.292.845-.092.835-.276 1.398c-.174.563-.43.845-.768.845-.102 0-.481-.082-1.137-.246s-1.101-.246-1.336-.246c-.358 0-.666.2-.922.599-.246.399-.369.968-.369 1.705s.108 1.311.323 1.72c.225.41.517.614.876.614.256 0 .717-.102 1.382-.307.676-.215 1.07-.323 1.183-.323.317 0 .563.292.737.876.184.584.276 1.055.276 1.413s-.113.645-.338.86c-.215.205-.527.358-.937.461zm7.3-.337c0 .133-.312.241-.937.323s-1.254.123-1.889.123c-.625 0-1.029-.036-1.213-.108-.174-.072-.261-.184-.261-.338v-9.876c0-.266.333-.456.998-.568.676-.113 1.526-.169 2.55-.169s1.684.005 1.981.015c.307 0 .666.015 1.075.046s.732.082.968.154c.246.072.512.164.799.276.297.113.527.261.691.445.164.174.323.384.476.63.276.44.415 1.07.415 1.889 0 .809-.138 1.495-.415 2.058-.266.553-.625.973-1.075 1.26 1.178 1.853 1.766 3.031 1.766 3.533s-1.009.753-3.026.753c-.584 0-.988-.026-1.213-.077s-.369-.164-.43-.338l-.998-3.164-.261-.015v3.149zm0-5.515h.399c.594 0 .891-.461.891-1.382 0-.471-.082-.804-.246-.998-.154-.195-.333-.292-.538-.292h-.507v2.673zm15.096 5.96h-6.513c-.502 0-.84-.036-1.014-.108s-.261-.184-.261-.338v-9.723c0-.266.118-.456.353-.568.246-.113.681-.169 1.306-.169h6.175c.215 0 .323.358.323 1.075 0 .707-.046 1.249-.138 1.628-.092.369-.215.553-.369.553-.666 0-1.787-.067-3.364-.2v1.029a96.486 96.486 0 0 1 2.964-.092c.276 0 .415.323.415.968s-.056 1.137-.169 1.475c-.102.328-.246.492-.43.492l-2.78-.061v.983c1.782-.133 3.011-.2 3.686-.2.215 0 .323.358.323 1.075s-.046 1.26-.138 1.628c-.092.369-.215.553-.369.553zm6.441-.783c-.02.297-.179.502-.476.614-.287.113-.809.169-1.567.169s-1.393-.067-1.905-.2c-.502-.143-.753-.323-.753-.538 0-.246.456-1.812 1.367-4.7a950.611 950.611 0 0 0 1.567-5.007c.051-.133.461-.241 1.229-.323a21.227 21.227 0 0 1 2.488-.138c.891 0 1.382.154 1.475.461 1.935 6.431 2.903 9.697 2.903 9.8s-.061.205-.184.307c-.287.225-.855.338-1.705.338-1.812 0-2.739-.215-2.78-.645l-.108-.998h-1.475l-.077.86zm1.229-3.779-.23-2.765h-.338l-.261 2.765h.829zm8.851 4.562h-1.121c-.481 0-.809-.036-.983-.108s-.261-.184-.261-.338v-9.692c0-.236.312-.42.937-.553.635-.143 1.311-.215 2.028-.215s1.229.092 1.536.276c.307.184.486.379.538.584l1.044 4.055h.138l.983-3.871c.072-.276.404-.517.998-.722.604-.215 1.265-.323 1.981-.323s1.244.056 1.582.169c.348.113.522.256.522.43v9.861c0 .133-.292.241-.876.323s-1.295.123-2.135.123c-.84 0-1.26-.148-1.26-.445 0-.809.087-2.248.261-4.316h-.138l-.799 4.009c-.031.154-.159.266-.384.338-.215.072-.543.108-.983.108s-.712-.031-.814-.092c-.092-.061-.154-.179-.184-.353l-.829-4.009h-.138c.184 2.109.276 3.548.276 4.316 0 .266-.64.415-1.92.445z"/></symbol><symbol id="icon-burger" viewBox="0 0 46 32"><path fill="none" stroke="#d41443" style="stroke:var(--color1,#d41443)" stroke-width="2.286" d="M0 2.286h45.714M0 16h45.714M0 29.714h45.714"/></symbol><symbol id="icon-facebook" viewBox="0 0 32 32"><path d="M20.446 15.982h-2.61v9.619h-3.955v-9.619H12v-3.38h1.881v-2.187c0-1.564.739-4.014 3.99-4.014l2.929.012v3.281h-2.125c-.349 0-.839.175-.839.921v1.989h2.955l-.346 3.377z"/></symbol><symbol id="icon-telegram" viewBox="0 0 32 32"><path d="m12.867 18.375-.318 4.169c.454 0 .651-.182.887-.401l2.13-1.9 4.415 3.017c.81.421 1.38.199 1.598-.695l2.898-12.673c.257-1.117-.433-1.554-1.222-1.28L6.223 14.698c-1.162.421-1.145 1.026-.198 1.3l4.354 1.264 10.115-5.907c.476-.294.909-.131.553.163l-8.182 6.857z"/></symbol><symbol id="icon-github" viewBox="0 0 32 32"><path d="M16 6.588c-5.169 0-9.412 4.242-9.412 9.412 0 4.411 3.095 8.419 7.206 9.412v-3.114a2.307 2.307 0 0 1-1.197-.03c-.556-.164-1.008-.535-1.344-1.1-.214-.361-.593-.752-.988-.723l-.097-1.099c.855-.073 1.595.521 2.034 1.259.195.328.419.52.708.605.278.082.578.043.926-.08.088-.698.407-.959.648-1.326v-.001c-2.451-.366-3.428-1.666-3.816-2.693-.514-1.363-.238-3.066.671-4.142.018-.021.05-.076.037-.114-.417-1.258.091-2.299.11-2.41.481.142.559-.143 2.089.786l.264.159c.111.066.076.028.186.02A8.031 8.031 0 0 1 16 11.131a8.016 8.016 0 0 1 2.002.285l.086.009c-.007-.001.023-.005.075-.036 1.911-1.157 1.842-.779 2.355-.946.019.111.519 1.169.107 2.411-.056.171 1.657 1.739.708 4.256-.388 1.027-1.365 2.328-3.816 2.693v.001c.314.479.692.734.69 1.722v3.887c4.111-.993 7.206-5 7.206-9.412 0-5.169-4.242-9.412-9.412-9.412z"/></symbol><symbol id="icon-check-box" viewBox="0 0 32 32"><path d="m7.914 15.503-.138-.131-2.067 1.958 7.282 6.947L28.289 9.683l-2.053-1.959-13.245 12.623-5.077-4.844z"/></symbol><symbol id="icon-close" viewBox="0 0 32 32"><path stroke-miterlimit="44" d="m2.519 2 26.963 28M2 29.481 30 2.518"/></symbol><symbol id="icon-house" viewBox="0 0 32 32"><path fill="#d31342" style="fill:var(--color3,#d31342)" d="M31.599 16.766c.58-.595.524-1.507-.125-2.037L17.173 3.056c-.649-.53-1.69-.518-2.325.025L.498 15.351c-.635.543-.667 1.454-.069 2.034l.36.35c.597.579 1.562.648 2.154.154l1.072-.896v13.116c0 .805.699 1.456 1.561 1.456h5.594c.862 0 1.561-.651 1.561-1.456v-9.176h7.135v9.176c-.012.804.604 1.455 1.466 1.455h5.928c.862 0 1.561-.651 1.561-1.456v-12.93l.662.542c.366.3 1.131.059 1.711-.536l.407-.417z"/></symbol><symbol id="icon-arrow" viewBox="0 0 32 32"><path fill="#fff" style="fill:var(--color2,#fff)" d="M32 16c0 8.837-7.163 16-16 16S0 24.837 0 16 7.163 0 16 0s16 7.163 16 16z"/><path fill="#d41442" style="fill:var(--color4,#d41442)" d="M12.308 15.261h-.738v1.477h.738v-1.477zm7.384.739.567.473a.738.738 0 0 0 0-.945l-.567.473zm-2.509-4.165a.739.739 0 0 0-1.135.945l1.135-.946zm-1.135 7.385a.738.738 0 1 0 1.135.945l-1.135-.945zm-3.74-2.482h7.385v-1.477h-7.385v1.477zm7.952-1.211-3.077-3.692-1.135.946 3.077 3.692 1.135-.945zm-1.135 0-3.077 3.692 1.135.945 3.077-3.692-1.135-.945z"/></symbol><symbol id="icon-arrow-only-arrow" viewBox="0 0 32 32"><path d="M12.308 15.261h-.738v1.477h.738v-1.477zm7.384.739.567.473a.738.738 0 0 0 0-.945l-.567.473zm-2.509-4.165a.739.739 0 0 0-1.135.945l1.135-.946zm-1.135 7.385a.738.738 0 1 0 1.135.945l-1.135-.945zm-3.74-2.482h7.385v-1.477h-7.385v1.477zm7.952-1.211-3.077-3.692-1.135.946 3.077 3.692 1.135-.945zm-1.135 0-3.077 3.692 1.135.945 3.077-3.692-1.135-.945z"/></symbol><symbol id="icon-logo" viewBox="0 0 127 32"><path fill="#d41442" style="fill:var(--color4,#d41442)" d="M32 16c0 8.837-7.163 16-16 16S0 24.837 0 16 7.163 0 16 0s16 7.163 16 16z"/><path fill="#fff" style="fill:var(--color2,#fff)" d="M10.24 28.16h1.28V32h-1.28v-3.84zM20.48 28.16h1.28V32h-1.28v-3.84z"/><path fill="#fff" style="fill:var(--color2,#fff)" d="M10.748 28.8h1.854v-1.28h-1.854v1.28zm8.651 0h1.854v-1.28h-1.854v1.28zm0-1.28h-6.797v1.28h6.797v-1.28zm-8.651 0c-1.673 0-3.068-1.411-3.068-3.2H6.4c0 2.453 1.926 4.48 4.348 4.48v-1.28zm13.572-3.2c0 1.789-1.394 3.2-3.068 3.2v1.28c2.422 0 4.348-2.027 4.348-4.48h-1.28zm0-4.004v4.004h1.28v-4.004h-1.28zM7.68 24.32v-4.004H6.4v4.004h1.28zM23.29 8.703zm-14.58 0zM16 5.76c2.802 0 5.272 1.318 6.778 3.327l1.024-.768c-1.745-2.33-4.594-3.84-7.802-3.84v1.28zm6.778 3.327a7.634 7.634 0 0 1 1.542 4.596h1.28a8.908 8.908 0 0 0-1.798-5.363l-1.024.768zM16 4.48c-3.208 0-6.057 1.51-7.802 3.84l1.024.768C10.728 7.079 13.198 5.761 16 5.761v-1.28zM8.198 8.32A8.91 8.91 0 0 0 6.4 13.683h1.28c0-1.712.57-3.298 1.542-4.596l-1.024-.768zm-.518 6.4v-1.037H6.4v1.037h1.28zm16.64-1.037v1.037h1.28v-1.037h-1.28zM6.4 14.72v.96h1.28v-.96H6.4zm17.92 0v.96h1.28v-.96h-1.28z"/><path fill="#fff" style="fill:var(--color2,#fff)" d="M22.471 8.027c-1.28 2.486-3.712 4.133-6.471 4.133v1.28c3.294 0 6.136-1.967 7.609-4.827l-1.138-.586zM16 12.16c-2.759 0-5.191-1.648-6.471-4.133l-1.138.586c1.473 2.86 4.315 4.827 7.609 4.827v-1.28z"/><path fill="#fff" style="fill:var(--color2,#fff)" d="M6.455 14.884zm19.09 0zm0 5.432zm-19.09 0zm14.665.164V19.2h-1.28v1.28h1.28zm-4.48 0h1.28V19.2h-1.28v1.28zM7.442 16h17.115v-2.56H7.442V16zm0-2.56c-.489 0-.962.082-1.403.233l.832 2.421A1.74 1.74 0 0 1 7.442 16v-2.56zm-1.403.233C4.406 14.234 3.2 15.764 3.2 17.6h2.56c0-.672.443-1.276 1.111-1.506l-.832-2.421zM24.558 16c.203 0 .395.034.571.094l.832-2.421a4.301 4.301 0 0 0-1.403-.233V16zm.571.094c.668.23 1.111.834 1.111 1.506h2.56c0-1.836-1.206-3.365-2.839-3.927l-.832 2.421zM26.24 17.6c0 .672-.443 1.276-1.111 1.506l.832 2.421c1.633-.561 2.839-2.091 2.839-3.927h-2.56zm-1.111 1.506a1.74 1.74 0 0 1-.571.094v2.56c.489 0 .962-.082 1.403-.233l-.832-2.421zM7.442 19.2c-.203 0-.395-.034-.571-.094l-.832 2.421c.441.152.914.233 1.403.233V19.2zm-.571-.094c-.668-.23-1.111-.834-1.111-1.506H3.2c0 1.836 1.206 3.365 2.839 3.927l.832-2.421zM19.84 20.48v1.371h2.56V20.48h-2.56zm-1.92 1.371V20.48h-2.56v1.371h2.56zm.96 1.189c-.416 0-.96-.412-.96-1.189h-2.56c0 1.95 1.462 3.749 3.52 3.749v-2.56zm.96-1.189c0 .776-.544 1.189-.96 1.189v2.56c2.058 0 3.52-1.798 3.52-3.749h-2.56zm1.28-.091h3.438V19.2H21.12v2.56zm-4.48-2.56H7.442v2.56h9.198V19.2z"/><path fill="#d41442" style="fill:var(--color4,#d41442)" d="M47.14 21.391c0 .113-.312.205-.937.276-.625.061-1.254.092-1.889.092-.625 0-1.024-.026-1.198-.077-.174-.061-.261-.159-.261-.292v-9.554c0-.225.297-.445.891-.66.594-.225 1.26-.338 1.997-.338.655 0 1.085.138 1.29.415a.531.531 0 0 1 .108.307v9.83zm9.544.261c-.41.092-.829.154-1.26.184-.42.041-.835.061-1.244.061-.399 0-.712-.01-.937-.031-.215-.02-.502-.072-.86-.154s-.686-.195-.983-.338a4.867 4.867 0 0 1-.952-.63 3.825 3.825 0 0 1-.829-.983c-.522-.881-.783-2.017-.783-3.41 0-.932.143-1.756.43-2.473.297-.717.65-1.27 1.06-1.659a5.17 5.17 0 0 1 1.428-.937c.86-.389 1.725-.584 2.596-.584 1.249 0 2.145.102 2.688.307.246.092.466.236.66.43s.292.476.292.845-.092.835-.276 1.398c-.174.563-.43.845-.768.845-.102 0-.481-.082-1.137-.246s-1.101-.246-1.336-.246c-.358 0-.666.2-.922.599-.246.399-.369.968-.369 1.705s.108 1.311.323 1.72c.225.41.517.614.876.614.256 0 .717-.102 1.382-.307.676-.215 1.07-.323 1.183-.323.317 0 .563.292.737.876.184.584.276 1.055.276 1.413s-.113.645-.338.86c-.215.205-.527.358-.937.461zm10.787.108h-6.513c-.502 0-.84-.036-1.014-.108s-.261-.184-.261-.338v-9.723c0-.266.118-.456.353-.568.246-.113.681-.169 1.306-.169h6.175c.215 0 .323.358.323 1.075 0 .707-.046 1.249-.138 1.628-.092.369-.215.553-.369.553-.666 0-1.787-.067-3.364-.2v1.029a96.486 96.486 0 0 1 2.964-.092c.276 0 .415.323.415.968s-.056 1.137-.169 1.475c-.102.328-.246.492-.43.492l-2.78-.061v.983c1.782-.133 3.011-.2 3.686-.2.215 0 .323.358.323 1.075s-.046 1.26-.138 1.628c-.092.369-.215.553-.369.553zm9.897-.108c-.41.092-.829.154-1.26.184-.42.041-.835.061-1.244.061-.399 0-.712-.01-.937-.031-.215-.02-.502-.072-.86-.154s-.686-.195-.983-.338a4.867 4.867 0 0 1-.952-.63 3.825 3.825 0 0 1-.829-.983c-.522-.881-.783-2.017-.783-3.41 0-.932.143-1.756.43-2.473.297-.717.65-1.27 1.06-1.659a5.17 5.17 0 0 1 1.428-.937c.86-.389 1.725-.584 2.596-.584 1.249 0 2.145.102 2.688.307.246.092.466.236.66.43s.292.476.292.845-.092.835-.276 1.398c-.174.563-.43.845-.768.845-.102 0-.481-.082-1.137-.246s-1.101-.246-1.336-.246c-.358 0-.666.2-.922.599-.246.399-.369.968-.369 1.705s.108 1.311.323 1.72c.225.41.517.614.876.614.256 0 .717-.102 1.382-.307.676-.215 1.07-.323 1.183-.323.317 0 .563.292.737.876.184.584.276 1.055.276 1.413s-.113.645-.338.86c-.215.205-.527.358-.937.461zm7.3-.337c0 .133-.312.241-.937.323s-1.254.123-1.889.123c-.625 0-1.029-.036-1.213-.108-.174-.072-.261-.184-.261-.338v-9.876c0-.266.333-.456.998-.568.676-.113 1.526-.169 2.55-.169s1.684.005 1.981.015c.307 0 .666.015 1.075.046s.732.082.968.154c.246.072.512.164.799.276.297.113.527.261.691.445.164.174.323.384.476.63.276.44.415 1.07.415 1.889 0 .809-.138 1.495-.415 2.058-.266.553-.625.973-1.075 1.26 1.178 1.853 1.766 3.031 1.766 3.533s-1.009.753-3.026.753c-.584 0-.988-.026-1.213-.077s-.369-.164-.43-.338l-.998-3.164-.261-.015v3.149zm0-5.515h.399c.594 0 .891-.461.891-1.382 0-.471-.082-.804-.246-.998-.154-.195-.333-.292-.538-.292h-.507v2.673zm15.096 5.96h-6.513c-.502 0-.84-.036-1.014-.108s-.261-.184-.261-.338v-9.723c0-.266.118-.456.353-.568.246-.113.681-.169 1.306-.169h6.175c.215 0 .323.358.323 1.075 0 .707-.046 1.249-.138 1.628-.092.369-.215.553-.369.553-.666 0-1.787-.067-3.364-.2v1.029a96.486 96.486 0 0 1 2.964-.092c.276 0 .415.323.415.968s-.056 1.137-.169 1.475c-.102.328-.246.492-.43.492l-2.78-.061v.983c1.782-.133 3.011-.2 3.686-.2.215 0 .323.358.323 1.075s-.046 1.26-.138 1.628c-.092.369-.215.553-.369.553zm6.441-.783c-.02.297-.179.502-.476.614-.287.113-.809.169-1.567.169s-1.393-.067-1.905-.2c-.502-.143-.753-.323-.753-.538 0-.246.456-1.812 1.367-4.7a950.611 950.611 0 0 0 1.567-5.007c.051-.133.461-.241 1.229-.323a21.227 21.227 0 0 1 2.488-.138c.891 0 1.382.154 1.475.461 1.935 6.431 2.903 9.697 2.903 9.8s-.061.205-.184.307c-.287.225-.855.338-1.705.338-1.812 0-2.739-.215-2.78-.645l-.108-.998h-1.475l-.077.86zm1.229-3.779-.23-2.765h-.338l-.261 2.765h.829zm8.851 4.562h-1.121c-.481 0-.809-.036-.983-.108s-.261-.184-.261-.338v-9.692c0-.236.312-.42.937-.553.635-.143 1.311-.215 2.028-.215s1.229.092 1.536.276c.307.184.486.379.538.584l1.044 4.055h.138l.983-3.871c.072-.276.404-.517.998-.722.604-.215 1.265-.323 1.981-.323s1.244.056 1.582.169c.348.113.522.256.522.43v9.861c0 .133-.292.241-.876.323s-1.295.123-2.135.123c-.84 0-1.26-.148-1.26-.445 0-.809.087-2.248.261-4.316h-.138l-.799 4.009c-.031.154-.159.266-.384.338-.215.072-.543.108-.983.108s-.712-.031-.814-.092c-.092-.061-.154-.179-.184-.353l-.829-4.009h-.138c.184 2.109.276 3.548.276 4.316 0 .266-.64.415-1.92.445z"/></symbol><symbol id="icon-button-arrow" viewBox="0 0 26 32"><path fill="none" stroke="#d41443" style="stroke:var(--color1,#d41443)" stroke-linejoin="round" stroke-linecap="round" stroke-width="6.4" d="M5.172 3.2 19.341 16 5.172 28.8"/></symbol><symbol id="icon-slider-dots" viewBox="0 0 256 32"><path fill="#c7133e" style="fill:var(--color1,#c7133e)" d="M144 16c0 8.837-7.163 16-16 16s-16-7.163-16-16 7.163-16 16-16 16 7.163 16 16zM32 16c0 8.837-7.163 16-16 16S0 24.837 0 16 7.163 0 16 0s16 7.163 16 16zM256 16c0 8.837-7.163 16-16 16s-16-7.163-16-16 7.163-16 16-16 16 7.163 16 16z"/></symbol><symbol id="icon-icecream" viewBox="0 0 32 32"><path d="M14.705.387C12.743.74 10.85 1.849 9.633 3.35c-.952 1.167-1.658 2.835-1.825 4.297-.059.5-.098.559-.422.736-.422.236-.804.844-.804 1.315 0 .461.402 1.108.824 1.334.226.118.353.265.353.392.01.579.608 1.354 1.315 1.687l.383.177 1.471 4.316c1.619 4.758 2.56 7.524 3.875 11.369.52 1.53.932 2.59 1.03 2.649.118.078.216.078.333 0 .108-.069 1.256-3.296 3.267-9.221l3.1-9.113.383-.177c.716-.333 1.315-1.108 1.324-1.687 0-.127.127-.275.353-.392.422-.226.824-.873.824-1.334s-.471-1.197-.873-1.354c-.206-.088-.304-.196-.304-.343 0-.108-.088-.618-.196-1.128-.363-1.756-1.471-3.58-2.864-4.708-.775-.638-2.07-1.305-3.021-1.579C17.335.35 15.471.242 14.706.39zm3.208.922c.324.088 1.01.363 1.521.618.785.383 1.069.598 1.825 1.344.746.756.961 1.04 1.344 1.825.52 1.06.736 1.795.824 2.845.059.824.147.981.491.981.333 0 .716.412.716.785 0 .353-.373.785-.677.785-.412 0-.5.098-.5.608 0 .834-.451 1.354-1.177 1.354-.637 0-1.06-.383-1.167-1.069-.029-.186-.137-.383-.226-.441-.255-.157-.51.039-.579.441-.079.51-.265.775-.628.932-.853.353-1.56-.029-1.707-.932-.118-.667-.696-.657-.804.02-.079.52-.333.834-.775.961-.785.236-1.432-.167-1.56-.961-.108-.677-.687-.687-.804-.02-.029.186-.098.432-.167.54-.128.236-.677.53-1.001.53s-.873-.294-1.001-.53c-.068-.108-.137-.353-.167-.54-.118-.657-.687-.657-.804 0-.078.491-.236.736-.618.912-.932.441-1.726-.108-1.726-1.197 0-.51-.088-.608-.5-.608-.304 0-.677-.432-.677-.785 0-.373.383-.785.716-.785.343 0 .432-.157.491-.981.088-1.05.304-1.785.824-2.845.383-.785.588-1.069 1.344-1.815 1.157-1.148 2.217-1.726 3.787-2.06.794-.176 2.569-.127 3.383.088zm-6.308 11.438c.706.647 1.844.647 2.511-.01l.314-.314.275.275a1.806 1.806 0 0 0 2.541.029l.324-.314.265.265c.333.314.902.559 1.305.559s.971-.245 1.295-.559l.265-.255.333.284c.187.157.412.333.51.392.177.098 0 .647-2.649 8.456-1.57 4.601-2.864 8.358-2.894 8.358s-.275-.657-.559-1.471l-.5-1.462.638-.029c.716-.029.961-.216.755-.549-.088-.128-.275-.177-.893-.196l-.775-.029-.51-1.55 1.03-.029c.863-.029 1.06-.059 1.148-.206.078-.118.078-.216 0-.343-.088-.137-.294-.167-1.275-.196l-1.167-.029-.216-.608c-.118-.333-.245-.687-.275-.775-.059-.157.059-.177 1.373-.196 1.256-.029 1.462-.049 1.56-.206.078-.118.078-.216 0-.343-.098-.147-.314-.167-1.687-.196l-1.579-.02-.216-.667c-.118-.363-.236-.716-.255-.775-.039-.098.383-.127 1.785-.147 1.628-.029 1.854-.049 1.952-.206.078-.118.078-.216 0-.343-.098-.147-.324-.167-2.07-.196l-1.972-.02-.255-.726c-.137-.402-.255-.756-.255-.785s1.001-.069 2.217-.078c1.991-.029 2.236-.049 2.335-.206.078-.118.078-.216 0-.343-.098-.147-.363-.177-2.492-.216l-2.384-.049-.236-.677c-.118-.383-.226-.716-.226-.765 0-.039 1.177-.088 2.609-.098 2.374-.029 2.629-.049 2.727-.206.078-.118.078-.216 0-.343-.098-.147-.383-.167-2.884-.216l-2.776-.049-.177-.491c-.098-.275-.177-.54-.177-.588 0-.059.196-.226.432-.373.245-.157.441-.324.441-.373-.001-.137.068-.108.412.206z"/></symbol><symbol id="icon-modal-logo" viewBox="0 0 127 32"><path fill="#fff" style="fill:var(--color1,#fff)" d="M31.36 16.32C31.36 24.98 24.483 32 16 32S.64 24.98.64 16.32 7.517.64 16 .64s15.36 7.02 15.36 15.68z"/><path d="M11.849.562C4.443 2.805 0 8.635 0 16.004c0 6.023 3.091 11.277 8.179 13.904 2.64 1.346 3.027.384.58-1.474-1.739-1.41-2.061-2.05-2.061-4.421 0-1.666-.386-3.011-.966-3.524-1.159-.961-1.288-3.46-.129-4.357.451-.384.902-1.666.966-2.819.322-4.229 4.894-8.201 9.467-8.201s9.145 3.973 9.466 8.201c.064 1.153.515 2.435.966 2.819 1.159.897 1.03 3.396-.129 4.357-.58.513-.966 1.858-.966 3.524 0 2.371-.322 3.011-2.061 4.421-2.705 2.114-1.932 2.883 1.095 1.025 4.25-2.627 7.406-8.33 7.406-13.391C31.813 5.944 21.252-2.257 11.85.562z"/><path d="M12.686 7.994c-1.159.513-2.125 1.153-2.125 1.538 0 .705 3.477 1.986 5.474 1.986s5.474-1.281 5.474-1.986c0-.769-3.993-2.499-5.603-2.499-.644.064-2.125.449-3.22.961zm33.165 3.332c-.966.256-1.159 1.089-1.159 5.703v5.382h4.572l-.193-5.574c-.193-5.831-.451-6.279-3.22-5.51zm7.535.32c-2.125 1.153-2.898 2.563-2.898 5.318 0 3.78 2.061 5.574 5.86 5.318 2.576-.192 2.833-.384 3.027-1.986s.064-1.73-1.932-1.602c-2.061.192-2.125.064-2.125-2.05s.129-2.243 1.996-2.05c1.546.128 2.125-.128 2.383-1.089.129-.641 0-1.538-.386-1.922-.902-.897-4.25-.897-5.925.064zm7.663.064c-.193.513-.258 3.011-.129 5.638l.193 4.741h4.186c3.864 0 4.186-.128 4.379-1.474.193-1.217-.064-1.41-2.06-1.41-1.288 0-2.319-.32-2.319-.641 0-.384.902-.641 1.932-.641 1.481 0 1.932-.256 1.932-1.281s-.451-1.281-1.932-1.281c-1.03 0-1.932-.32-1.932-.641 0-.384.837-.641 1.868-.641 1.804 0 3.027-1.41 2.254-2.627-.58-.961-7.985-.705-8.372.256zm12.944-.192c-2.125.833-2.962 2.307-3.027 4.998-.065 4.613 1.803 6.215 6.633 5.767 1.868-.128 2.189-.448 2.189-1.794 0-1.41-.257-1.602-2.061-1.41-1.546.128-2.125-.064-2.447-1.089-.58-1.986.644-3.588 2.705-3.588 1.224 0 1.868-.384 1.996-1.217.451-2.05-2.833-3.011-5.989-1.666zm7.921-.256c-.323.256-.515 2.883-.515 5.831v5.382l2.06-.192c1.61-.128 2.19-.577 2.512-1.794l.386-1.602.515 1.73c.387 1.474.837 1.794 2.512 1.794 2.769 0 3.091-.448 1.932-2.691-.708-1.41-.837-2.114-.322-2.627.837-.833.902-3.652.129-4.87-.644-1.025-8.371-1.858-9.208-.961zm5.28 3.46c0 .705-.257 1.281-.644 1.281-.322 0-.644-.577-.644-1.281s.322-1.281.644-1.281c.387 0 .644.577.644 1.281zm6.247-3.396c-.258.192-.451 2.819-.451 5.767v5.318h4.186c4.057 0 4.186-.064 4.186-1.602 0-1.346-.322-1.602-1.932-1.602-1.03 0-1.932-.32-1.932-.641 0-.384.708-.641 1.61-.641 1.159 0 1.61-.32 1.61-1.281s-.451-1.281-1.61-1.281c-.902 0-1.61-.32-1.61-.641 0-.384.902-.641 1.932-.641 1.61 0 1.932-.256 1.932-1.602 0-1.538-.193-1.602-3.735-1.602-2.061 0-3.992.192-4.186.448zm13.009-.064c-1.16.32-4.122 8.842-3.542 10.252.515 1.281 3.413 1.153 4.186-.192.579-1.089.644-1.089 1.803 0 1.482 1.281 4.701 1.474 4.701.256 0-.384-.644-2.947-1.482-5.574-1.288-4.229-1.674-4.806-3.027-4.934-.902 0-2.061.064-2.64.192zm1.803 5.831c-.193.641-.322.256-.322-.769 0-1.089.129-1.538.322-1.153.129.448.129 1.346 0 1.922zm7.47-5.767c-.58.192-.837 1.986-.837 5.703v5.382h1.868c1.61 0 1.932-.32 2.189-1.794.257-1.666.257-1.666.772-.32.258.833.902 1.474 1.352 1.474.515 0 1.224-.641 1.546-1.474.515-1.346.58-1.346.58.384.065 1.602.257 1.794 2.061 1.602l1.996-.192.065-5.318c.129-4.934.064-5.318-1.288-5.638-2.061-.513-3.799.705-4.379 3.076l-.451 2.114-.708-2.243c-.902-3.011-2.254-3.78-4.765-2.755zm-106.707.641c-.193.256-.386 1.089-.386 1.922 0 1.474.064 1.474 7.406 1.474s7.406 0 7.406-1.474c0-2.178-.58-2.435-2.64-1.41-2.318 1.217-7.213 1.217-9.531 0-1.03-.513-1.996-.705-2.254-.513zm-1.868 5.702c-1.03 1.089.708 1.538 5.731 1.538h5.409v2.243c0 1.217.322 2.243.644 2.243.386 0 .644-.961.644-2.178 0-2.114.129-2.243 2.576-2.435 1.417-.128 2.576-.513 2.576-.833 0-.705-16.872-1.281-17.581-.577z"/><path d="M8.629 23.308c0 3.524 1.224 4.229 7.406 4.229s7.406-.705 7.406-4.229c0-1.538-.322-2.178-.966-2.178-.58 0-.966.577-.966 1.538 0 3.588-4.894 3.908-5.603.384-.322-1.858-.515-1.922-3.8-1.922H8.629v2.178zm3.993 7.24c.386 2.05 6.955 1.858 6.955-.128 0-.705-.837-.961-3.606-.961-3.027 0-3.542.192-3.349 1.089z"/></symbol><symbol id="phone" viewBox="0 0 32 32"><path d="m27.419 20.852-4.201-.48a3.293 3.293 0 0 0-2.713.943l-3.044 3.044A24.888 24.888 0 0 1 6.56 13.458l3.06-3.06a3.293 3.293 0 0 0 .943-2.713l-.48-4.168A3.31 3.31 0 0 0 6.791.589H3.929C2.06.589.505 2.144.621 4.013c.877 14.126 12.174 25.407 26.284 26.284 1.869.116 3.424-1.439 3.424-3.308v-2.861c.016-1.671-1.241-3.077-2.911-3.275z"/></symbol><symbol id="letter" viewBox="0 0 43 32"><path d="M37.333 0h-32c-2.2 0-3.98 1.8-3.98 4l-.02 24c0 2.2 1.8 4 4 4h32c2.2 0 4-1.8 4-4V4c0-2.2-1.8-4-4-4zm-.8 8.5-14.14 8.84c-.64.4-1.48.4-2.12 0L6.133 8.5c-.5-.32-.8-.86-.8-1.44 0-1.34 1.46-2.14 2.6-1.44l13.4 8.38 13.4-8.38c1.14-.7 2.6.1 2.6 1.44 0 .58-.3 1.12-.8 1.44z"/></symbol></defs></svg>