<svg width="199" height="50" viewBox="0 0 199 50" fill="#ffffff" xmlns="http://www.w3.org/2000/svg">
<circle cx="25" cy="25" r="25" fill="#D41442"/>
<mask id="mask0_9_1998" style="mask-type:alpha" maskUnits="userSpaceOnUse" x="0" y="0" width="50" height="50">
<circle cx="25" cy="25" r="25" fill="#D41442"/>
</mask>
<g mask="url(#mask0_9_1998)">
<rect x="16" y="44" width="2" height="6" fill="#ffffff"/>
<rect x="32" y="44" width="2" height="6" fill="#ffffff"/>
</g>
<path d="M16.7931 45H19.6897V43H16.7931V45ZM30.3103 45H33.2069V43H30.3103V45ZM30.3103 43H19.6897V45H30.3103V43ZM16.7931 43C14.1787 43 12 40.7947 12 38H10C10 41.8326 13.0086 45 16.7931 45V43ZM38 38C38 40.7947 35.8213 43 33.2069 43V45C36.9914 45 40 41.8326 40 38H38ZM38 31.7439V38H40V31.7439H38ZM12 38V31.7439H10V38H12Z" fill="white"/>
<path d="M36.3907 13.5989L35.5904 14.1985V14.1985L36.3907 13.5989ZM13.6093 13.5989L12.809 12.9993L13.6093 13.5989ZM25 9C29.3781 9 33.238 11.0588 35.5904 14.1985L37.191 12.9993C34.4637 9.35924 30.0126 7 25 7V9ZM35.5904 14.1985C37.1099 16.2267 38 18.7045 38 21.3796H40C40 18.2506 38.9566 15.3559 37.191 12.9993L35.5904 14.1985ZM25 7C19.9874 7 15.5363 9.35924 12.809 12.9993L14.4096 14.1985C16.762 11.0588 20.6219 9 25 9V7ZM12.809 12.9993C11.0434 15.3559 10 18.2506 10 21.3796H12C12 18.7045 12.8901 16.2267 14.4096 14.1985L12.809 12.9993ZM12 23V21.3796H10V23H12ZM38 21.3796V23H40V21.3796H38ZM10 23V24.5H12V23H10ZM38 23V24.5H40V23H38Z" fill="white"/>
<path d="M35.111 12.542C33.1103 16.4258 29.3108 19 25 19V21C30.147 21 34.5872 17.926 36.889 13.458L35.111 12.542ZM25 19C20.6892 19 16.8897 16.4258 14.889 12.542L13.111 13.458C15.4128 17.926 19.853 21 25 21V19Z" fill="white"/>
<mask id="path-8-inside-1_9_1998" fill="#ffffff">
<path d="M38.3714 23H11.6286C11.0876 23 10.5683 23.0902 10.0857 23.2561C8.28799 23.8738 7 25.5407 7 27.5C7 29.4593 8.28799 31.1262 10.0857 31.7439C10.5683 31.9098 11.0876 32 11.6286 32H26V34.1429C26 36.2731 27.567 38 29.5 38C31.433 38 33 36.2731 33 34.1429V32H38.3714C38.9124 32 39.4317 31.9098 39.9143 31.7439C41.712 31.1262 43 29.4593 43 27.5C43 25.5407 41.712 23.8738 39.9143 23.2561C39.4317 23.0902 38.9124 23 38.3714 23Z"/>
</mask>
<path d="M10.0857 23.2561L9.43576 21.3646H9.43576L10.0857 23.2561ZM39.9143 23.2561L40.5642 21.3646L40.5642 21.3646L39.9143 23.2561ZM39.9143 31.7439L40.5642 33.6354L40.5642 33.6354L39.9143 31.7439ZM10.0857 31.7439L10.7357 29.8525L10.7357 29.8525L10.0857 31.7439ZM33 32V30H31V32H33ZM26 32H28V30H26V32ZM11.6286 25H38.3714V21H11.6286V25ZM11.6286 21C10.8641 21 10.1252 21.1277 9.43576 21.3646L10.7357 25.1475C11.0113 25.0528 11.3111 25 11.6286 25V21ZM9.43576 21.3646C6.88405 22.2415 5 24.6311 5 27.5H9C9 26.4502 9.69193 25.5062 10.7357 25.1475L9.43576 21.3646ZM38.3714 25C38.6889 25 38.9887 25.0528 39.2643 25.1475L40.5642 21.3646C39.8748 21.1277 39.1359 21 38.3714 21V25ZM39.2643 25.1475C40.3081 25.5062 41 26.4502 41 27.5H45C45 24.6311 43.116 22.2415 40.5642 21.3646L39.2643 25.1475ZM41 27.5C41 28.5498 40.3081 29.4938 39.2643 29.8525L40.5642 33.6354C43.116 32.7585 45 30.3689 45 27.5H41ZM39.2643 29.8525C38.9887 29.9472 38.6889 30 38.3714 30V34C39.1359 34 39.8748 33.8723 40.5642 33.6354L39.2643 29.8525ZM11.6286 30C11.3111 30 11.0113 29.9472 10.7357 29.8525L9.43575 33.6354C10.1252 33.8723 10.8641 34 11.6286 34V30ZM10.7357 29.8525C9.69193 29.4938 9 28.5498 9 27.5H5C5 30.3689 6.88405 32.7585 9.43576 33.6354L10.7357 29.8525ZM31 32V34.1429H35V32H31ZM28 34.1429V32H24V34.1429H28ZM29.5 36C28.85 36 28 35.3558 28 34.1429H24C24 37.1904 26.284 40 29.5 40V36ZM31 34.1429C31 35.3558 30.15 36 29.5 36V40C32.716 40 35 37.1904 35 34.1429H31ZM33 34H38.3714V30H33V34ZM26 30H11.6286V34H26V30Z" fill="white" mask="url(#path-8-inside-1_9_1998)"/>
<path d="M73.656 33.424C73.656 33.6 73.168 33.744 72.192 33.856C71.216 33.952 70.232 34 69.24 34C68.264 34 67.64 33.96 67.368 33.88C67.096 33.784 66.96 33.632 66.96 33.424V18.496C66.96 18.144 67.424 17.8 68.352 17.464C69.28 17.112 70.32 16.936 71.472 16.936C72.496 16.936 73.168 17.152 73.488 17.584C73.6 17.744 73.656 17.904 73.656 18.064V33.424ZM88.569 33.832C87.929 33.976 87.273 34.072 86.601 34.12C85.945 34.184 85.297 34.216 84.657 34.216C84.033 34.216 83.545 34.2 83.193 34.168C82.857 34.136 82.409 34.056 81.849 33.928C81.289 33.8 80.777 33.624 80.313 33.4C79.849 33.176 79.353 32.848 78.825 32.416C78.313 31.984 77.881 31.472 77.529 30.88C76.713 29.504 76.305 27.728 76.305 25.552C76.305 24.096 76.529 22.808 76.977 21.688C77.441 20.568 77.993 19.704 78.633 19.096C79.289 18.488 80.033 18 80.865 17.632C82.209 17.024 83.561 16.72 84.921 16.72C86.873 16.72 88.273 16.88 89.121 17.2C89.505 17.344 89.849 17.568 90.153 17.872C90.457 18.176 90.609 18.616 90.609 19.192C90.609 19.768 90.465 20.496 90.177 21.376C89.905 22.256 89.505 22.696 88.977 22.696C88.817 22.696 88.225 22.568 87.201 22.312C86.177 22.056 85.481 21.928 85.113 21.928C84.553 21.928 84.073 22.24 83.673 22.864C83.289 23.488 83.097 24.376 83.097 25.528C83.097 26.68 83.265 27.576 83.601 28.216C83.953 28.856 84.409 29.176 84.969 29.176C85.369 29.176 86.089 29.016 87.129 28.696C88.185 28.36 88.801 28.192 88.977 28.192C89.473 28.192 89.857 28.648 90.129 29.56C90.417 30.472 90.561 31.208 90.561 31.768C90.561 32.328 90.385 32.776 90.033 33.112C89.697 33.432 89.209 33.672 88.569 33.832ZM105.423 34H95.247C94.463 34 93.935 33.944 93.663 33.832C93.391 33.72 93.255 33.544 93.255 33.304V18.112C93.255 17.696 93.439 17.4 93.807 17.224C94.191 17.048 94.871 16.96 95.847 16.96H105.495C105.831 16.96 105.999 17.52 105.999 18.64C105.999 19.744 105.927 20.592 105.783 21.184C105.639 21.76 105.447 22.048 105.207 22.048C104.167 22.048 102.415 21.944 99.951 21.736V23.344C102.319 23.248 103.863 23.2 104.583 23.2C105.015 23.2 105.231 23.704 105.231 24.712C105.231 25.72 105.143 26.488 104.967 27.016C104.807 27.528 104.583 27.784 104.295 27.784L99.951 27.688V29.224C102.735 29.016 104.655 28.912 105.711 28.912C106.047 28.912 106.215 29.472 106.215 30.592C106.215 31.712 106.143 32.56 105.999 33.136C105.855 33.712 105.663 34 105.423 34ZM120.887 33.832C120.247 33.976 119.591 34.072 118.919 34.12C118.263 34.184 117.615 34.216 116.975 34.216C116.351 34.216 115.863 34.2 115.511 34.168C115.175 34.136 114.727 34.056 114.167 33.928C113.607 33.8 113.095 33.624 112.631 33.4C112.167 33.176 111.671 32.848 111.143 32.416C110.631 31.984 110.199 31.472 109.847 30.88C109.031 29.504 108.623 27.728 108.623 25.552C108.623 24.096 108.847 22.808 109.295 21.688C109.759 20.568 110.311 19.704 110.951 19.096C111.607 18.488 112.351 18 113.183 17.632C114.527 17.024 115.879 16.72 117.239 16.72C119.191 16.72 120.591 16.88 121.439 17.2C121.823 17.344 122.167 17.568 122.471 17.872C122.775 18.176 122.927 18.616 122.927 19.192C122.927 19.768 122.783 20.496 122.495 21.376C122.223 22.256 121.823 22.696 121.295 22.696C121.135 22.696 120.543 22.568 119.519 22.312C118.495 22.056 117.799 21.928 117.431 21.928C116.871 21.928 116.391 22.24 115.991 22.864C115.607 23.488 115.415 24.376 115.415 25.528C115.415 26.68 115.583 27.576 115.919 28.216C116.271 28.856 116.727 29.176 117.287 29.176C117.687 29.176 118.407 29.016 119.447 28.696C120.503 28.36 121.119 28.192 121.295 28.192C121.791 28.192 122.175 28.648 122.447 29.56C122.735 30.472 122.879 31.208 122.879 31.768C122.879 32.328 122.703 32.776 122.351 33.112C122.015 33.432 121.527 33.672 120.887 33.832ZM132.293 33.304C132.293 33.512 131.805 33.68 130.829 33.808C129.853 33.936 128.869 34 127.877 34C126.901 34 126.269 33.944 125.981 33.832C125.709 33.72 125.573 33.544 125.573 33.304V17.872C125.573 17.456 126.093 17.16 127.133 16.984C128.189 16.808 129.517 16.72 131.117 16.72C132.717 16.72 133.749 16.728 134.213 16.744C134.693 16.744 135.253 16.768 135.893 16.816C136.533 16.864 137.037 16.944 137.405 17.056C137.789 17.168 138.205 17.312 138.653 17.488C139.117 17.664 139.477 17.896 139.733 18.184C139.989 18.456 140.237 18.784 140.477 19.168C140.909 19.856 141.125 20.84 141.125 22.12C141.125 23.384 140.909 24.456 140.477 25.336C140.061 26.2 139.501 26.856 138.797 27.304C140.637 30.2 141.557 32.04 141.557 32.824C141.557 33.608 139.981 34 136.829 34C135.917 34 135.285 33.96 134.933 33.88C134.581 33.8 134.357 33.624 134.261 33.352L132.701 28.408L132.293 28.384V33.304ZM132.293 24.688H132.917C133.845 24.688 134.309 23.968 134.309 22.528C134.309 21.792 134.181 21.272 133.925 20.968C133.685 20.664 133.405 20.512 133.085 20.512H132.293V24.688ZM155.881 34H145.705C144.921 34 144.393 33.944 144.121 33.832C143.849 33.72 143.713 33.544 143.713 33.304V18.112C143.713 17.696 143.897 17.4 144.265 17.224C144.649 17.048 145.329 16.96 146.305 16.96H155.953C156.289 16.96 156.457 17.52 156.457 18.64C156.457 19.744 156.385 20.592 156.241 21.184C156.097 21.76 155.905 22.048 155.665 22.048C154.625 22.048 152.873 21.944 150.409 21.736V23.344C152.777 23.248 154.321 23.2 155.041 23.2C155.473 23.2 155.689 23.704 155.689 24.712C155.689 25.72 155.601 26.488 155.425 27.016C155.265 27.528 155.041 27.784 154.753 27.784L150.409 27.688V29.224C153.193 29.016 155.113 28.912 156.169 28.912C156.505 28.912 156.673 29.472 156.673 30.592C156.673 31.712 156.601 32.56 156.457 33.136C156.313 33.712 156.121 34 155.881 34ZM165.946 32.776C165.914 33.24 165.666 33.56 165.202 33.736C164.754 33.912 163.938 34 162.754 34C161.57 34 160.578 33.896 159.778 33.688C158.994 33.464 158.602 33.184 158.602 32.848C158.602 32.464 159.314 30.016 160.738 25.504C162.162 20.976 162.978 18.368 163.186 17.68C163.266 17.472 163.906 17.304 165.106 17.176C166.322 17.032 167.618 16.96 168.994 16.96C170.386 16.96 171.154 17.2 171.298 17.68C174.322 27.728 175.834 32.832 175.834 32.992C175.834 33.152 175.738 33.312 175.546 33.472C175.098 33.824 174.21 34 172.882 34C170.05 34 168.602 33.664 168.538 32.992L168.37 31.432H166.066L165.946 32.776ZM167.866 26.872L167.506 22.552H166.978L166.57 26.872H167.866ZM181.696 34C181.296 34 180.712 34 179.944 34C179.192 34 178.68 33.944 178.408 33.832C178.136 33.72 178 33.544 178 33.304V18.16C178 17.792 178.488 17.504 179.464 17.296C180.456 17.072 181.512 16.96 182.632 16.96C183.752 16.96 184.552 17.104 185.032 17.392C185.512 17.68 185.792 17.984 185.872 18.304L187.504 24.64H187.72L189.256 18.592C189.368 18.16 189.888 17.784 190.816 17.464C191.76 17.128 192.792 16.96 193.912 16.96C195.032 16.96 195.856 17.048 196.384 17.224C196.928 17.4 197.2 17.624 197.2 17.896V33.304C197.2 33.512 196.744 33.68 195.832 33.808C194.92 33.936 193.808 34 192.496 34C191.184 34 190.528 33.768 190.528 33.304C190.528 32.04 190.664 29.792 190.936 26.56H190.72L189.472 32.824C189.424 33.064 189.224 33.24 188.872 33.352C188.536 33.464 188.024 33.52 187.336 33.52C186.648 33.52 186.224 33.472 186.064 33.376C185.92 33.28 185.824 33.096 185.776 32.824L184.48 26.56H184.264C184.552 29.856 184.696 32.104 184.696 33.304C184.696 33.72 183.696 33.952 181.696 34Z" fill="#D41442"/>
</svg>
