<svg aria-hidden="true" style="position: absolute; width: 0; height: 0; overflow: hidden;" version="1.1"
    xmlns="http://www.w3.org/2000/svg" xmlns:xlink="http://www.w3.org/1999/xlink">
    <defs>
        <symbol id="icon-slider-icon" viewBox="0 0 43 32">
            <path fill="#e1e1e1" style="fill: var(--color1, #e1e1e1)"
                d="M32.014 0c1.929 0 3.75 0.52 5.464 1.561s3.107 2.537 4.179 4.488c1.029 1.951 1.543 4.249 1.543 6.894s-0.643 5.225-1.929 7.74c-0.429 0.911-1.2 2.081-2.314 3.512-1.157 1.431-2.229 2.667-3.214 3.707l-4.050 4.098-2.893-4.813c2.014-1.257 3.793-2.818 5.336-4.683 1.543-1.821 2.314-3.491 2.314-5.008 0-0.78-0.171-1.409-0.514-1.886-1.5 1.084-3.171 1.626-5.014 1.626-1.329 0-2.593-0.412-3.793-1.236-1.243-0.78-2.229-1.821-2.957-3.122-0.771-1.258-1.157-2.558-1.157-3.902 0-1.518 0.45-2.97 1.35-4.358 0.857-1.388 1.993-2.515 3.407-3.382 1.371-0.824 2.786-1.236 4.243-1.236zM8.936 0c1.929 0 3.75 0.52 5.464 1.561s3.107 2.537 4.179 4.488c1.029 1.951 1.543 4.249 1.543 6.894 0 1.864-0.236 3.534-0.707 5.008-0.471 1.518-1.286 3.1-2.443 4.748-1.114 1.561-2.164 2.862-3.15 3.902-0.986 1.084-2.7 2.884-5.143 5.398l-2.893-4.813c2.014-1.257 3.793-2.818 5.336-4.683 1.543-1.821 2.314-3.491 2.314-5.008 0-0.78-0.171-1.409-0.514-1.886-1.5 1.084-3.171 1.626-5.014 1.626-1.329 0-2.593-0.412-3.793-1.236-1.243-0.78-2.229-1.821-2.957-3.122-0.771-1.258-1.157-2.558-1.157-3.902 0-1.518 0.429-2.97 1.286-4.358s1.993-2.515 3.407-3.382c1.371-0.824 2.786-1.236 4.243-1.236z">
            </path>
        </symbol>
        <symbol id="icon-header-logo" viewBox="0 0 127 32">
            <path fill="#d41442" style="fill: var(--color1, #d41442)" d="M32 16c0 8.837-7.163 16-16 16s-16-7.163-16-16c0-8.837 7.163-16 16-16s16 7.163 16 16z"></path>
<path fill="#fff" style="fill: var(--color2, #fff)" d="M10.24 28.16h1.28v3.84h-1.28v-3.84z"></path>
<path fill="#fff" style="fill: var(--color2, #fff)" d="M20.48 28.16h1.28v3.84h-1.28v-3.84z"></path>
<path fill="#fff" style="fill: var(--color2, #fff)" d="M10.748 28.8h1.854v-1.28h-1.854v1.28zM19.399 28.8h1.854v-1.28h-1.854v1.28zM19.399 27.52h-6.797v1.28h6.797v-1.28zM10.748 27.52c-1.673 0-3.068-1.411-3.068-3.2h-1.28c0 2.453 1.926 4.48 4.348 4.48v-1.28zM24.32 24.32c0 1.789-1.394 3.2-3.068 3.2v1.28c2.422 0 4.348-2.027 4.348-4.48h-1.28zM24.32 20.316v4.004h1.28v-4.004h-1.28zM7.68 24.32v-4.004h-1.28v4.004h1.28z"></path>
<path fill="#fff" style="fill: var(--color2, #fff)" d="M23.29 8.703v0zM8.71 8.703v0zM16 5.76c2.802 0 5.272 1.318 6.778 3.327l1.024-0.768c-1.745-2.33-4.594-3.84-7.802-3.84v1.28zM22.778 9.087c0.972 1.298 1.542 2.884 1.542 4.596h1.28c0-2.003-0.668-3.855-1.798-5.363l-1.024 0.768zM16 4.48c-3.208 0-6.057 1.51-7.802 3.84l1.024 0.768c1.506-2.009 3.976-3.327 6.778-3.327v-1.28zM8.198 8.32c-1.13 1.508-1.798 3.361-1.798 5.363h1.28c0-1.712 0.57-3.298 1.542-4.596l-1.024-0.768zM7.68 14.72v-1.037h-1.28v1.037h1.28zM24.32 13.683v1.037h1.28v-1.037h-1.28zM6.4 14.72v0.96h1.28v-0.96h-1.28zM24.32 14.72v0.96h1.28v-0.96h-1.28z"></path>
<path fill="#fff" style="fill: var(--color2, #fff)" d="M22.471 8.027c-1.28 2.486-3.712 4.133-6.471 4.133v1.28c3.294 0 6.136-1.967 7.609-4.827l-1.138-0.586zM16 12.16c-2.759 0-5.191-1.648-6.471-4.133l-1.138 0.586c1.473 2.86 4.315 4.827 7.609 4.827v-1.28z"></path>
<path fill="none" stroke="#fff" style="stroke: var(--color2, #fff)" stroke-linejoin="miter" stroke-linecap="butt" stroke-miterlimit="4" stroke-width="1.28" d="M7.36 19.84h9.92v1.92c0 1.28 0.64 1.92 1.6 1.92s1.6-0.64 1.6-1.92v-1.92c0 0 1.28 0 3.84 0s2.56-1.92 2.56-2.24c0-0.32 0-2.24-2.56-2.24"></path>
<path fill="none" stroke="#fff" style="stroke: var(--color2, #fff)" stroke-linejoin="miter" stroke-linecap="butt" stroke-miterlimit="4" stroke-width="1.28" d="M7.68 19.84c-2.56 0-2.56-1.92-2.56-2.24s0-2.24 2.56-2.24h16.64"></path>
<path fill="#d41442" style="fill: var(--color1, #d41442)" d="M47.14 21.391c0 0.113-0.312 0.205-0.937 0.276-0.625 0.061-1.254 0.092-1.889 0.092-0.625 0-1.024-0.026-1.198-0.077-0.174-0.061-0.261-0.159-0.261-0.292v-9.554c0-0.225 0.297-0.445 0.891-0.66 0.594-0.225 1.26-0.338 1.997-0.338 0.655 0 1.085 0.138 1.29 0.415 0.072 0.102 0.108 0.205 0.108 0.307v9.83zM56.684 21.652c-0.41 0.092-0.829 0.154-1.26 0.184-0.42 0.041-0.835 0.061-1.244 0.061-0.399 0-0.712-0.010-0.937-0.031-0.215-0.020-0.502-0.072-0.86-0.154s-0.686-0.195-0.983-0.338c-0.297-0.143-0.614-0.353-0.952-0.63-0.328-0.276-0.604-0.604-0.829-0.983-0.522-0.881-0.783-2.017-0.783-3.41 0-0.932 0.143-1.756 0.43-2.473 0.297-0.717 0.65-1.27 1.060-1.659 0.42-0.389 0.896-0.701 1.428-0.937 0.86-0.389 1.725-0.584 2.596-0.584 1.249 0 2.145 0.102 2.688 0.307 0.246 0.092 0.466 0.236 0.66 0.43s0.292 0.476 0.292 0.845c0 0.369-0.092 0.835-0.276 1.398-0.174 0.563-0.43 0.845-0.768 0.845-0.102 0-0.481-0.082-1.137-0.246s-1.101-0.246-1.336-0.246c-0.358 0-0.666 0.2-0.922 0.599-0.246 0.399-0.369 0.968-0.369 1.705s0.108 1.311 0.323 1.72c0.225 0.41 0.517 0.614 0.876 0.614 0.256 0 0.717-0.102 1.382-0.307 0.676-0.215 1.070-0.323 1.183-0.323 0.317 0 0.563 0.292 0.737 0.876 0.184 0.584 0.276 1.055 0.276 1.413s-0.113 0.645-0.338 0.86c-0.215 0.205-0.527 0.358-0.937 0.461zM67.471 21.76h-6.513c-0.502 0-0.84-0.036-1.014-0.108s-0.261-0.184-0.261-0.338v-9.723c0-0.266 0.118-0.456 0.353-0.568 0.246-0.113 0.681-0.169 1.306-0.169h6.175c0.215 0 0.323 0.358 0.323 1.075 0 0.707-0.046 1.249-0.138 1.628-0.092 0.369-0.215 0.553-0.369 0.553-0.666 0-1.787-0.067-3.364-0.2v1.029c1.516-0.061 2.504-0.092 2.964-0.092 0.276 0 0.415 0.323 0.415 0.968s-0.056 1.137-0.169 1.475c-0.102 0.328-0.246 0.492-0.43 0.492l-2.78-0.061v0.983c1.782-0.133 3.011-0.2 3.686-0.2 0.215 0 0.323 0.358 0.323 1.075s-0.046 1.26-0.138 1.628c-0.092 0.369-0.215 0.553-0.369 0.553zM77.368 21.652c-0.41 0.092-0.829 0.154-1.26 0.184-0.42 0.041-0.835 0.061-1.244 0.061-0.399 0-0.712-0.010-0.937-0.031-0.215-0.020-0.502-0.072-0.86-0.154s-0.686-0.195-0.983-0.338c-0.297-0.143-0.614-0.353-0.952-0.63-0.328-0.276-0.604-0.604-0.829-0.983-0.522-0.881-0.783-2.017-0.783-3.41 0-0.932 0.143-1.756 0.43-2.473 0.297-0.717 0.65-1.27 1.060-1.659 0.42-0.389 0.896-0.701 1.428-0.937 0.86-0.389 1.725-0.584 2.596-0.584 1.249 0 2.145 0.102 2.688 0.307 0.246 0.092 0.466 0.236 0.66 0.43s0.292 0.476 0.292 0.845c0 0.369-0.092 0.835-0.276 1.398-0.174 0.563-0.43 0.845-0.768 0.845-0.102 0-0.481-0.082-1.137-0.246s-1.101-0.246-1.336-0.246c-0.358 0-0.666 0.2-0.922 0.599-0.246 0.399-0.369 0.968-0.369 1.705s0.108 1.311 0.323 1.72c0.225 0.41 0.517 0.614 0.876 0.614 0.256 0 0.717-0.102 1.382-0.307 0.676-0.215 1.070-0.323 1.183-0.323 0.317 0 0.563 0.292 0.737 0.876 0.184 0.584 0.276 1.055 0.276 1.413s-0.113 0.645-0.338 0.86c-0.215 0.205-0.527 0.358-0.937 0.461zM84.668 21.315c0 0.133-0.312 0.241-0.937 0.323s-1.254 0.123-1.889 0.123c-0.625 0-1.029-0.036-1.213-0.108-0.174-0.072-0.261-0.184-0.261-0.338v-9.876c0-0.266 0.333-0.456 0.998-0.568 0.676-0.113 1.526-0.169 2.55-0.169s1.684 0.005 1.981 0.015c0.307 0 0.666 0.015 1.075 0.046s0.732 0.082 0.968 0.154c0.246 0.072 0.512 0.164 0.799 0.276 0.297 0.113 0.527 0.261 0.691 0.445 0.164 0.174 0.323 0.384 0.476 0.63 0.276 0.44 0.415 1.070 0.415 1.889 0 0.809-0.138 1.495-0.415 2.058-0.266 0.553-0.625 0.973-1.075 1.26 1.178 1.853 1.766 3.031 1.766 3.533s-1.009 0.753-3.026 0.753c-0.584 0-0.988-0.026-1.213-0.077s-0.369-0.164-0.43-0.338l-0.998-3.164-0.261-0.015v3.149zM84.668 15.8h0.399c0.594 0 0.891-0.461 0.891-1.382 0-0.471-0.082-0.804-0.246-0.998-0.154-0.195-0.333-0.292-0.538-0.292h-0.507v2.673zM99.764 21.76h-6.513c-0.502 0-0.84-0.036-1.014-0.108s-0.261-0.184-0.261-0.338v-9.723c0-0.266 0.118-0.456 0.353-0.568 0.246-0.113 0.681-0.169 1.306-0.169h6.175c0.215 0 0.323 0.358 0.323 1.075 0 0.707-0.046 1.249-0.138 1.628-0.092 0.369-0.215 0.553-0.369 0.553-0.666 0-1.787-0.067-3.364-0.2v1.029c1.516-0.061 2.504-0.092 2.964-0.092 0.276 0 0.415 0.323 0.415 0.968s-0.056 1.137-0.169 1.475c-0.102 0.328-0.246 0.492-0.43 0.492l-2.78-0.061v0.983c1.782-0.133 3.011-0.2 3.686-0.2 0.215 0 0.323 0.358 0.323 1.075s-0.046 1.26-0.138 1.628c-0.092 0.369-0.215 0.553-0.369 0.553zM106.205 20.977c-0.020 0.297-0.179 0.502-0.476 0.614-0.287 0.113-0.809 0.169-1.567 0.169s-1.393-0.067-1.905-0.2c-0.502-0.143-0.753-0.323-0.753-0.538 0-0.246 0.456-1.812 1.367-4.7 0.911-2.898 1.434-4.567 1.567-5.007 0.051-0.133 0.461-0.241 1.229-0.323 0.778-0.092 1.608-0.138 2.488-0.138 0.891 0 1.382 0.154 1.475 0.461 1.935 6.431 2.903 9.697 2.903 9.8s-0.061 0.205-0.184 0.307c-0.287 0.225-0.855 0.338-1.705 0.338-1.812 0-2.739-0.215-2.78-0.645l-0.108-0.998h-1.475l-0.077 0.86zM107.434 17.198l-0.23-2.765h-0.338l-0.261 2.765h0.829zM116.285 21.76c-0.256 0-0.63 0-1.121 0-0.481 0-0.809-0.036-0.983-0.108s-0.261-0.184-0.261-0.338v-9.692c0-0.236 0.312-0.42 0.937-0.553 0.635-0.143 1.311-0.215 2.028-0.215s1.229 0.092 1.536 0.276c0.307 0.184 0.486 0.379 0.538 0.584l1.044 4.055h0.138l0.983-3.871c0.072-0.276 0.404-0.517 0.998-0.722 0.604-0.215 1.265-0.323 1.981-0.323s1.244 0.056 1.582 0.169c0.348 0.113 0.522 0.256 0.522 0.43v9.861c0 0.133-0.292 0.241-0.876 0.323s-1.295 0.123-2.135 0.123c-0.84 0-1.26-0.148-1.26-0.445 0-0.809 0.087-2.248 0.261-4.316h-0.138l-0.799 4.009c-0.031 0.154-0.159 0.266-0.384 0.338-0.215 0.072-0.543 0.108-0.983 0.108s-0.712-0.031-0.814-0.092c-0.092-0.061-0.154-0.179-0.184-0.353l-0.829-4.009h-0.138c0.184 2.109 0.276 3.548 0.276 4.316 0 0.266-0.64 0.415-1.92 0.445z"></path>

        </symbol>
        <symbol id="icon-burger" viewBox="0 0 46 32">
            <path fill="none" stroke="#d41443" style="stroke: var(--color1, #d41443)" stroke-linejoin="miter"
                stroke-linecap="butt" stroke-miterlimit="4" stroke-width="2.2857" d="M0 2.286h45.714"></path>
            <path fill="none" stroke="#d41443" style="stroke: var(--color1, #d41443)" stroke-linejoin="miter"
                stroke-linecap="butt" stroke-miterlimit="4" stroke-width="2.2857" d="M0 16h45.714"></path>
            <path fill="none" stroke="#d41443" style="stroke: var(--color1, #d41443)" stroke-linejoin="miter"
                stroke-linecap="butt" stroke-miterlimit="4" stroke-width="2.2857" d="M0 29.714h45.714"></path>
        </symbol>
        <symbol id="icon-facebook" viewBox="0 0 32 32">
           <path 
                d="M20.446 15.982h-2.61v9.619h-3.955v-9.619h-1.881v-3.38h1.881v-2.187c0-1.564 0.739-4.014 3.99-4.014l2.929 0.012v3.281h-2.125c-0.349 0-0.839 0.175-0.839 0.921v1.989h2.955l-0.346 3.377z">
            </path>
        </symbol>
        <symbol id="icon-telegram" viewBox="0 0 32 32">
            
            <path 
                d="M12.867 18.375l-0.318 4.169c0.454 0 0.651-0.182 0.887-0.401l2.13-1.9 4.415 3.017c0.81 0.421 1.38 0.199 1.598-0.695l2.898-12.673c0.257-1.117-0.433-1.554-1.222-1.28l-17.032 6.086c-1.162 0.421-1.145 1.026-0.198 1.3l4.354 1.264 10.115-5.907c0.476-0.294 0.909-0.131 0.553 0.163l-8.182 6.857z">
            </path>
        </symbol>
        <symbol id="icon-github" viewBox="0 0 32 32">
           
            <path 
                d="M16 6.588c-5.169 0-9.412 4.242-9.412 9.412 0 4.411 3.095 8.419 7.206 9.412v-3.114c-0.407 0.089-0.782 0.092-1.197-0.030-0.556-0.164-1.008-0.535-1.344-1.1-0.214-0.361-0.593-0.752-0.988-0.723l-0.097-1.099c0.855-0.073 1.595 0.521 2.034 1.259 0.195 0.328 0.419 0.52 0.708 0.605 0.278 0.082 0.578 0.043 0.926-0.080 0.088-0.698 0.407-0.959 0.648-1.326v-0.001c-2.451-0.366-3.428-1.666-3.816-2.693-0.514-1.363-0.238-3.066 0.671-4.142 0.018-0.021 0.050-0.076 0.037-0.114-0.417-1.258 0.091-2.299 0.11-2.41 0.481 0.142 0.559-0.143 2.089 0.786l0.264 0.159c0.111 0.066 0.076 0.028 0.186 0.020 0.639-0.173 1.312-0.269 1.975-0.278 0.668 0.009 1.337 0.104 2.002 0.285l0.086 0.009c-0.007-0.001 0.023-0.005 0.075-0.036 1.911-1.157 1.842-0.779 2.355-0.946 0.019 0.111 0.519 1.169 0.107 2.411-0.056 0.171 1.657 1.739 0.708 4.256-0.388 1.027-1.365 2.328-3.816 2.693v0.001c0.314 0.479 0.692 0.734 0.69 1.722v3.887c4.111-0.993 7.206-5 7.206-9.412 0-5.169-4.242-9.412-9.412-9.412v0z">
            </path>
        </symbol>
        <symbol id="icon-check-box" viewBox="0 0 32 32">
            <path 
                d="M7.914 15.503l-0.138-0.131-2.067 1.958 7.282 6.947 15.298-14.594-2.053-1.959-13.245 12.623-5.077-4.844z">
            </path>
        </symbol>
        <symbol id="icon-close" viewBox="0 0 32 32">
            <path  stroke-linejoin="miter"
                stroke-linecap="butt" stroke-miterlimit="44"  d="M2.519 2l26.963 28"></path>
            <path  stroke-linejoin="miter"
                stroke-linecap="butt" stroke-miterlimit="44"  d="M2 29.481l28-26.963"></path>
        </symbol>

        <symbol id="icon-house" viewBox="0 0 32 32">
            <path fill="#d31342" style="fill: var(--color3, #d31342)"
                d="M31.599 16.766c0.58-0.595 0.524-1.507-0.125-2.037l-14.301-11.673c-0.649-0.53-1.69-0.518-2.325 0.025l-14.35 12.27c-0.635 0.543-0.667 1.454-0.069 2.034l0.36 0.35c0.597 0.579 1.562 0.648 2.154 0.154l1.072-0.896v13.116c0 0.805 0.699 1.456 1.561 1.456h5.594c0.862 0 1.561-0.651 1.561-1.456v-9.176h7.135v9.176c-0.012 0.804 0.604 1.455 1.466 1.455h5.928c0.862 0 1.561-0.651 1.561-1.456v-12.93c0 0 0.296 0.242 0.662 0.542s1.131 0.059 1.711-0.536l0.407-0.417z">
            </path>
        </symbol>
        <symbol id="icon-arrow" viewBox="0 0 32 32">
            <path fill="#fff" style="fill: var(--color2, #fff)"
                d="M32 16c0 8.837-7.163 16-16 16s-16-7.163-16-16c0-8.837 7.163-16 16-16s16 7.163 16 16z"></path>
            <path fill="#d41442" style="fill: var(--color4, #d41442)"
                d="M12.308 15.261h-0.738v1.477h0.738v-1.477zM19.692 16l0.567 0.473c0.228-0.274 0.228-0.672 0-0.945l-0.567 0.473zM17.183 11.835c-0.261-0.313-0.727-0.356-1.040-0.095s-0.356 0.727-0.095 1.040l1.135-0.946zM16.048 19.22c-0.261 0.313-0.219 0.779 0.095 1.040s0.779 0.219 1.040-0.095l-1.135-0.945zM12.308 16.738h7.385v-1.477h-7.385v1.477zM20.26 15.527l-3.077-3.692-1.135 0.946 3.077 3.692 1.135-0.945zM19.125 15.527l-3.077 3.692 1.135 0.945 3.077-3.692-1.135-0.945z">
            </path>
        </symbol>
        <symbol id="icon-arrow-only-arrow" viewBox="0 0 32 32">

            <path
                d="M12.308 15.261h-0.738v1.477h0.738v-1.477zM19.692 16l0.567 0.473c0.228-0.274 0.228-0.672 0-0.945l-0.567 0.473zM17.183 11.835c-0.261-0.313-0.727-0.356-1.040-0.095s-0.356 0.727-0.095 1.040l1.135-0.946zM16.048 19.22c-0.261 0.313-0.219 0.779 0.095 1.040s0.779 0.219 1.040-0.095l-1.135-0.945zM12.308 16.738h7.385v-1.477h-7.385v1.477zM20.26 15.527l-3.077-3.692-1.135 0.946 3.077 3.692 1.135-0.945zM19.125 15.527l-3.077 3.692 1.135 0.945 3.077-3.692-1.135-0.945z">
            </path>
        </symbol>
        <symbol id="icon-logo" viewBox="0 0 127 32">
            <path fill="#d41442" style="fill: var(--color4, #d41442)"
                d="M32 16c0 8.837-7.163 16-16 16s-16-7.163-16-16c0-8.837 7.163-16 16-16s16 7.163 16 16z"></path>
            <path fill="#fff" style="fill: var(--color2, #fff)" d="M10.24 28.16h1.28v3.84h-1.28v-3.84z"></path>
            <path fill="#fff" style="fill: var(--color2, #fff)" d="M20.48 28.16h1.28v3.84h-1.28v-3.84z"></path>
            <path fill="#fff" style="fill: var(--color2, #fff)"
                d="M10.748 28.8h1.854v-1.28h-1.854v1.28zM19.399 28.8h1.854v-1.28h-1.854v1.28zM19.399 27.52h-6.797v1.28h6.797v-1.28zM10.748 27.52c-1.673 0-3.068-1.411-3.068-3.2h-1.28c0 2.453 1.926 4.48 4.348 4.48v-1.28zM24.32 24.32c0 1.789-1.394 3.2-3.068 3.2v1.28c2.422 0 4.348-2.027 4.348-4.48h-1.28zM24.32 20.316v4.004h1.28v-4.004h-1.28zM7.68 24.32v-4.004h-1.28v4.004h1.28z">
            </path>
            <path fill="#fff" style="fill: var(--color2, #fff)"
                d="M23.29 8.703v0zM8.71 8.703v0zM16 5.76c2.802 0 5.272 1.318 6.778 3.327l1.024-0.768c-1.745-2.33-4.594-3.84-7.802-3.84v1.28zM22.778 9.087c0.972 1.298 1.542 2.884 1.542 4.596h1.28c0-2.003-0.668-3.855-1.798-5.363l-1.024 0.768zM16 4.48c-3.208 0-6.057 1.51-7.802 3.84l1.024 0.768c1.506-2.009 3.976-3.327 6.778-3.327v-1.28zM8.198 8.32c-1.13 1.508-1.798 3.361-1.798 5.363h1.28c0-1.712 0.57-3.298 1.542-4.596l-1.024-0.768zM7.68 14.72v-1.037h-1.28v1.037h1.28zM24.32 13.683v1.037h1.28v-1.037h-1.28zM6.4 14.72v0.96h1.28v-0.96h-1.28zM24.32 14.72v0.96h1.28v-0.96h-1.28z">
            </path>
            <path fill="#fff" style="fill: var(--color2, #fff)"
                d="M22.471 8.027c-1.28 2.486-3.712 4.133-6.471 4.133v1.28c3.294 0 6.136-1.967 7.609-4.827l-1.138-0.586zM16 12.16c-2.759 0-5.191-1.648-6.471-4.133l-1.138 0.586c1.473 2.86 4.315 4.827 7.609 4.827v-1.28z">
            </path>
            <path fill="#fff" style="fill: var(--color2, #fff)"
                d="M6.455 14.884v0zM25.545 14.884v0zM25.545 20.316v0zM6.455 20.316v0zM21.12 20.48v-1.28h-1.28v1.28h1.28zM16.64 20.48h1.28v-1.28h-1.28v1.28zM7.442 16h17.115v-2.56h-17.115v2.56zM7.442 13.44c-0.489 0-0.962 0.082-1.403 0.233l0.832 2.421c0.176-0.061 0.368-0.094 0.571-0.094v-2.56zM6.039 13.673c-1.633 0.561-2.839 2.091-2.839 3.927h2.56c0-0.672 0.443-1.276 1.111-1.506l-0.832-2.421zM24.558 16c0.203 0 0.395 0.034 0.571 0.094l0.832-2.421c-0.441-0.152-0.914-0.233-1.403-0.233v2.56zM25.129 16.094c0.668 0.23 1.111 0.834 1.111 1.506h2.56c0-1.836-1.206-3.365-2.839-3.927l-0.832 2.421zM26.24 17.6c0 0.672-0.443 1.276-1.111 1.506l0.832 2.421c1.633-0.561 2.839-2.091 2.839-3.927h-2.56zM25.129 19.106c-0.176 0.061-0.368 0.094-0.571 0.094v2.56c0.489 0 0.962-0.082 1.403-0.233l-0.832-2.421zM7.442 19.2c-0.203 0-0.395-0.034-0.571-0.094l-0.832 2.421c0.441 0.152 0.914 0.233 1.403 0.233v-2.56zM6.871 19.106c-0.668-0.23-1.111-0.834-1.111-1.506h-2.56c0 1.836 1.206 3.365 2.839 3.927l0.832-2.421zM19.84 20.48v1.371h2.56v-1.371h-2.56zM17.92 21.851v-1.371h-2.56v1.371h2.56zM18.88 23.040c-0.416 0-0.96-0.412-0.96-1.189h-2.56c0 1.95 1.462 3.749 3.52 3.749v-2.56zM19.84 21.851c0 0.776-0.544 1.189-0.96 1.189v2.56c2.058 0 3.52-1.798 3.52-3.749h-2.56zM21.12 21.76h3.438v-2.56h-3.438v2.56zM16.64 19.2h-9.198v2.56h9.198v-2.56z">
            </path>
            <path fill="#d41442" style="fill: var(--color4, #d41442)"
                d="M47.14 21.391c0 0.113-0.312 0.205-0.937 0.276-0.625 0.061-1.254 0.092-1.889 0.092-0.625 0-1.024-0.026-1.198-0.077-0.174-0.061-0.261-0.159-0.261-0.292v-9.554c0-0.225 0.297-0.445 0.891-0.66 0.594-0.225 1.26-0.338 1.997-0.338 0.655 0 1.085 0.138 1.29 0.415 0.072 0.102 0.108 0.205 0.108 0.307v9.83zM56.684 21.652c-0.41 0.092-0.829 0.154-1.26 0.184-0.42 0.041-0.835 0.061-1.244 0.061-0.399 0-0.712-0.010-0.937-0.031-0.215-0.020-0.502-0.072-0.86-0.154s-0.686-0.195-0.983-0.338c-0.297-0.143-0.614-0.353-0.952-0.63-0.328-0.276-0.604-0.604-0.829-0.983-0.522-0.881-0.783-2.017-0.783-3.41 0-0.932 0.143-1.756 0.43-2.473 0.297-0.717 0.65-1.27 1.060-1.659 0.42-0.389 0.896-0.701 1.428-0.937 0.86-0.389 1.725-0.584 2.596-0.584 1.249 0 2.145 0.102 2.688 0.307 0.246 0.092 0.466 0.236 0.66 0.43s0.292 0.476 0.292 0.845c0 0.369-0.092 0.835-0.276 1.398-0.174 0.563-0.43 0.845-0.768 0.845-0.102 0-0.481-0.082-1.137-0.246s-1.101-0.246-1.336-0.246c-0.358 0-0.666 0.2-0.922 0.599-0.246 0.399-0.369 0.968-0.369 1.705s0.108 1.311 0.323 1.72c0.225 0.41 0.517 0.614 0.876 0.614 0.256 0 0.717-0.102 1.382-0.307 0.676-0.215 1.070-0.323 1.183-0.323 0.317 0 0.563 0.292 0.737 0.876 0.184 0.584 0.276 1.055 0.276 1.413s-0.113 0.645-0.338 0.86c-0.215 0.205-0.527 0.358-0.937 0.461zM67.471 21.76h-6.513c-0.502 0-0.84-0.036-1.014-0.108s-0.261-0.184-0.261-0.338v-9.723c0-0.266 0.118-0.456 0.353-0.568 0.246-0.113 0.681-0.169 1.306-0.169h6.175c0.215 0 0.323 0.358 0.323 1.075 0 0.707-0.046 1.249-0.138 1.628-0.092 0.369-0.215 0.553-0.369 0.553-0.666 0-1.787-0.067-3.364-0.2v1.029c1.516-0.061 2.504-0.092 2.964-0.092 0.276 0 0.415 0.323 0.415 0.968s-0.056 1.137-0.169 1.475c-0.102 0.328-0.246 0.492-0.43 0.492l-2.78-0.061v0.983c1.782-0.133 3.011-0.2 3.686-0.2 0.215 0 0.323 0.358 0.323 1.075s-0.046 1.26-0.138 1.628c-0.092 0.369-0.215 0.553-0.369 0.553zM77.368 21.652c-0.41 0.092-0.829 0.154-1.26 0.184-0.42 0.041-0.835 0.061-1.244 0.061-0.399 0-0.712-0.010-0.937-0.031-0.215-0.020-0.502-0.072-0.86-0.154s-0.686-0.195-0.983-0.338c-0.297-0.143-0.614-0.353-0.952-0.63-0.328-0.276-0.604-0.604-0.829-0.983-0.522-0.881-0.783-2.017-0.783-3.41 0-0.932 0.143-1.756 0.43-2.473 0.297-0.717 0.65-1.27 1.060-1.659 0.42-0.389 0.896-0.701 1.428-0.937 0.86-0.389 1.725-0.584 2.596-0.584 1.249 0 2.145 0.102 2.688 0.307 0.246 0.092 0.466 0.236 0.66 0.43s0.292 0.476 0.292 0.845c0 0.369-0.092 0.835-0.276 1.398-0.174 0.563-0.43 0.845-0.768 0.845-0.102 0-0.481-0.082-1.137-0.246s-1.101-0.246-1.336-0.246c-0.358 0-0.666 0.2-0.922 0.599-0.246 0.399-0.369 0.968-0.369 1.705s0.108 1.311 0.323 1.72c0.225 0.41 0.517 0.614 0.876 0.614 0.256 0 0.717-0.102 1.382-0.307 0.676-0.215 1.070-0.323 1.183-0.323 0.317 0 0.563 0.292 0.737 0.876 0.184 0.584 0.276 1.055 0.276 1.413s-0.113 0.645-0.338 0.86c-0.215 0.205-0.527 0.358-0.937 0.461zM84.668 21.315c0 0.133-0.312 0.241-0.937 0.323s-1.254 0.123-1.889 0.123c-0.625 0-1.029-0.036-1.213-0.108-0.174-0.072-0.261-0.184-0.261-0.338v-9.876c0-0.266 0.333-0.456 0.998-0.568 0.676-0.113 1.526-0.169 2.55-0.169s1.684 0.005 1.981 0.015c0.307 0 0.666 0.015 1.075 0.046s0.732 0.082 0.968 0.154c0.246 0.072 0.512 0.164 0.799 0.276 0.297 0.113 0.527 0.261 0.691 0.445 0.164 0.174 0.323 0.384 0.476 0.63 0.276 0.44 0.415 1.070 0.415 1.889 0 0.809-0.138 1.495-0.415 2.058-0.266 0.553-0.625 0.973-1.075 1.26 1.178 1.853 1.766 3.031 1.766 3.533s-1.009 0.753-3.026 0.753c-0.584 0-0.988-0.026-1.213-0.077s-0.369-0.164-0.43-0.338l-0.998-3.164-0.261-0.015v3.149zM84.668 15.8h0.399c0.594 0 0.891-0.461 0.891-1.382 0-0.471-0.082-0.804-0.246-0.998-0.154-0.195-0.333-0.292-0.538-0.292h-0.507v2.673zM99.764 21.76h-6.513c-0.502 0-0.84-0.036-1.014-0.108s-0.261-0.184-0.261-0.338v-9.723c0-0.266 0.118-0.456 0.353-0.568 0.246-0.113 0.681-0.169 1.306-0.169h6.175c0.215 0 0.323 0.358 0.323 1.075 0 0.707-0.046 1.249-0.138 1.628-0.092 0.369-0.215 0.553-0.369 0.553-0.666 0-1.787-0.067-3.364-0.2v1.029c1.516-0.061 2.504-0.092 2.964-0.092 0.276 0 0.415 0.323 0.415 0.968s-0.056 1.137-0.169 1.475c-0.102 0.328-0.246 0.492-0.43 0.492l-2.78-0.061v0.983c1.782-0.133 3.011-0.2 3.686-0.2 0.215 0 0.323 0.358 0.323 1.075s-0.046 1.26-0.138 1.628c-0.092 0.369-0.215 0.553-0.369 0.553zM106.205 20.977c-0.020 0.297-0.179 0.502-0.476 0.614-0.287 0.113-0.809 0.169-1.567 0.169s-1.393-0.067-1.905-0.2c-0.502-0.143-0.753-0.323-0.753-0.538 0-0.246 0.456-1.812 1.367-4.7 0.911-2.898 1.434-4.567 1.567-5.007 0.051-0.133 0.461-0.241 1.229-0.323 0.778-0.092 1.608-0.138 2.488-0.138 0.891 0 1.382 0.154 1.475 0.461 1.935 6.431 2.903 9.697 2.903 9.8s-0.061 0.205-0.184 0.307c-0.287 0.225-0.855 0.338-1.705 0.338-1.812 0-2.739-0.215-2.78-0.645l-0.108-0.998h-1.475l-0.077 0.86zM107.434 17.198l-0.23-2.765h-0.338l-0.261 2.765h0.829zM116.285 21.76c-0.256 0-0.63 0-1.121 0-0.481 0-0.809-0.036-0.983-0.108s-0.261-0.184-0.261-0.338v-9.692c0-0.236 0.312-0.42 0.937-0.553 0.635-0.143 1.311-0.215 2.028-0.215s1.229 0.092 1.536 0.276c0.307 0.184 0.486 0.379 0.538 0.584l1.044 4.055h0.138l0.983-3.871c0.072-0.276 0.404-0.517 0.998-0.722 0.604-0.215 1.265-0.323 1.981-0.323s1.244 0.056 1.582 0.169c0.348 0.113 0.522 0.256 0.522 0.43v9.861c0 0.133-0.292 0.241-0.876 0.323s-1.295 0.123-2.135 0.123c-0.84 0-1.26-0.148-1.26-0.445 0-0.809 0.087-2.248 0.261-4.316h-0.138l-0.799 4.009c-0.031 0.154-0.159 0.266-0.384 0.338-0.215 0.072-0.543 0.108-0.983 0.108s-0.712-0.031-0.814-0.092c-0.092-0.061-0.154-0.179-0.184-0.353l-0.829-4.009h-0.138c0.184 2.109 0.276 3.548 0.276 4.316 0 0.266-0.64 0.415-1.92 0.445z">
            </path>
        </symbol>
        <symbol id="icon-button-arrow" viewBox="0 0 26 32">
            <path fill="none" stroke="#d41443" style="stroke: var(--color1, #d41443)" stroke-linejoin="round"
                stroke-linecap="round" stroke-miterlimit="4" stroke-width="6.4" d="M5.172 3.2l14.169 12.8-14.169 12.8">
            </path>
        </symbol>
        <symbol id="icon-slider-dots" viewBox="0 0 256 32">
            <path fill="#c7133e" style="fill: var(--color1, #c7133e)"
                d="M144 16c0 8.837-7.163 16-16 16s-16-7.163-16-16c0-8.837 7.163-16 16-16s16 7.163 16 16z"></path>
            <path fill="#c7133e" style="fill: var(--color1, #c7133e)"
                d="M32 16c0 8.837-7.163 16-16 16s-16-7.163-16-16c0-8.837 7.163-16 16-16s16 7.163 16 16z"></path>
            <path fill="#c7133e" style="fill: var(--color1, #c7133e)"
                d="M256 16c0 8.837-7.163 16-16 16s-16-7.163-16-16c0-8.837 7.163-16 16-16s16 7.163 16 16z"></path>
        </symbol>
        <symbol id="icon-icecream" viewBox="0 0 32 32">
    <path d="M14.705 0.387c-1.962 0.353-3.855 1.462-5.072 2.963-0.952 1.167-1.658 2.835-1.825 4.297-0.059 0.5-0.098 0.559-0.422 0.736-0.422 0.236-0.804 0.844-0.804 1.315 0 0.461 0.402 1.108 0.824 1.334 0.226 0.118 0.353 0.265 0.353 0.392 0.010 0.579 0.608 1.354 1.315 1.687l0.383 0.177 1.471 4.316c1.619 4.758 2.56 7.524 3.875 11.369 0.52 1.53 0.932 2.59 1.030 2.649 0.118 0.078 0.216 0.078 0.333 0 0.108-0.069 1.256-3.296 3.267-9.221l3.1-9.113 0.383-0.177c0.716-0.333 1.315-1.108 1.324-1.687 0-0.127 0.127-0.275 0.353-0.392 0.422-0.226 0.824-0.873 0.824-1.334s-0.471-1.197-0.873-1.354c-0.206-0.088-0.304-0.196-0.304-0.343 0-0.108-0.088-0.618-0.196-1.128-0.363-1.756-1.471-3.58-2.864-4.708-0.775-0.638-2.070-1.305-3.021-1.579-0.824-0.236-2.688-0.344-3.453-0.196zM17.913 1.309c0.324 0.088 1.010 0.363 1.521 0.618 0.785 0.383 1.069 0.598 1.825 1.344 0.746 0.756 0.961 1.040 1.344 1.825 0.52 1.060 0.736 1.795 0.824 2.845 0.059 0.824 0.147 0.981 0.491 0.981 0.333 0 0.716 0.412 0.716 0.785 0 0.353-0.373 0.785-0.677 0.785-0.412 0-0.5 0.098-0.5 0.608 0 0.834-0.451 1.354-1.177 1.354-0.637 0-1.060-0.383-1.167-1.069-0.029-0.186-0.137-0.383-0.226-0.441-0.255-0.157-0.51 0.039-0.579 0.441-0.079 0.51-0.265 0.775-0.628 0.932-0.853 0.353-1.56-0.029-1.707-0.932-0.118-0.667-0.696-0.657-0.804 0.020-0.079 0.52-0.333 0.834-0.775 0.961-0.785 0.236-1.432-0.167-1.56-0.961-0.108-0.677-0.687-0.687-0.804-0.020-0.029 0.186-0.098 0.432-0.167 0.54-0.128 0.236-0.677 0.53-1.001 0.53s-0.873-0.294-1.001-0.53c-0.068-0.108-0.137-0.353-0.167-0.54-0.118-0.657-0.687-0.657-0.804 0-0.078 0.491-0.236 0.736-0.618 0.912-0.932 0.441-1.726-0.108-1.726-1.197 0-0.51-0.088-0.608-0.5-0.608-0.304 0-0.677-0.432-0.677-0.785 0-0.373 0.383-0.785 0.716-0.785 0.343 0 0.432-0.157 0.491-0.981 0.088-1.050 0.304-1.785 0.824-2.845 0.383-0.785 0.588-1.069 1.344-1.815 1.157-1.148 2.217-1.726 3.787-2.060 0.794-0.176 2.569-0.127 3.383 0.088zM11.605 12.747c0.706 0.647 1.844 0.647 2.511-0.010l0.314-0.314 0.275 0.275c0.697 0.706 1.825 0.716 2.541 0.029l0.324-0.314 0.265 0.265c0.333 0.314 0.902 0.559 1.305 0.559s0.971-0.245 1.295-0.559l0.265-0.255 0.333 0.284c0.187 0.157 0.412 0.333 0.51 0.392 0.177 0.098 0 0.647-2.649 8.456-1.57 4.601-2.864 8.358-2.894 8.358s-0.275-0.657-0.559-1.471l-0.5-1.462 0.638-0.029c0.716-0.029 0.961-0.216 0.755-0.549-0.088-0.128-0.275-0.177-0.893-0.196l-0.775-0.029-0.51-1.55 1.030-0.029c0.863-0.029 1.060-0.059 1.148-0.206 0.078-0.118 0.078-0.216 0-0.343-0.088-0.137-0.294-0.167-1.275-0.196l-1.167-0.029-0.216-0.608c-0.118-0.333-0.245-0.687-0.275-0.775-0.059-0.157 0.059-0.177 1.373-0.196 1.256-0.029 1.462-0.049 1.56-0.206 0.078-0.118 0.078-0.216 0-0.343-0.098-0.147-0.314-0.167-1.687-0.196l-1.579-0.020-0.216-0.667c-0.118-0.363-0.236-0.716-0.255-0.775-0.039-0.098 0.383-0.127 1.785-0.147 1.628-0.029 1.854-0.049 1.952-0.206 0.078-0.118 0.078-0.216 0-0.343-0.098-0.147-0.324-0.167-2.070-0.196l-1.972-0.020-0.255-0.726c-0.137-0.402-0.255-0.756-0.255-0.785s1.001-0.069 2.217-0.078c1.991-0.029 2.236-0.049 2.335-0.206 0.078-0.118 0.078-0.216 0-0.343-0.098-0.147-0.363-0.177-2.492-0.216l-2.384-0.049-0.236-0.677c-0.118-0.383-0.226-0.716-0.226-0.765 0-0.039 1.177-0.088 2.609-0.098 2.374-0.029 2.629-0.049 2.727-0.206 0.078-0.118 0.078-0.216 0-0.343-0.098-0.147-0.383-0.167-2.884-0.216l-2.776-0.049-0.177-0.491c-0.098-0.275-0.177-0.54-0.177-0.588 0-0.059 0.196-0.226 0.432-0.373 0.245-0.157 0.441-0.324 0.441-0.373-0.001-0.137 0.068-0.108 0.412 0.206z"></path>
        </symbol>

        <!-- logo -->
        <symbol id="icon-modal-logo" viewBox="0 0 127 32">
        <path fill="#fff" style="fill: var(--color1, #fff)" d="M31.36 16.32c0 8.66-6.877 15.68-15.36 15.68s-15.36-7.020-15.36-15.68c0-8.66 6.877-15.68 15.36-15.68s15.36 7.020 15.36 15.68z"></path>
        <path d="M11.849 0.562c-7.406 2.243-11.849 8.073-11.849 15.442 0 6.023 3.091 11.277 8.179 13.904 2.64 1.346 3.027 0.384 0.58-1.474-1.739-1.41-2.061-2.050-2.061-4.421 0-1.666-0.386-3.011-0.966-3.524-1.159-0.961-1.288-3.46-0.129-4.357 0.451-0.384 0.902-1.666 0.966-2.819 0.322-4.229 4.894-8.201 9.467-8.201s9.145 3.973 9.466 8.201c0.064 1.153 0.515 2.435 0.966 2.819 1.159 0.897 1.030 3.396-0.129 4.357-0.58 0.513-0.966 1.858-0.966 3.524 0 2.371-0.322 3.011-2.061 4.421-2.705 2.114-1.932 2.883 1.095 1.025 4.25-2.627 7.406-8.33 7.406-13.391 0-10.124-10.561-18.325-19.963-15.506z"></path>
        <path d="M12.686 7.994c-1.159 0.513-2.125 1.153-2.125 1.538 0 0.705 3.477 1.986 5.474 1.986s5.474-1.281 5.474-1.986c0-0.769-3.993-2.499-5.603-2.499-0.644 0.064-2.125 0.449-3.22 0.961zM45.851 11.326c-0.966 0.256-1.159 1.089-1.159 5.703v5.382h4.572l-0.193-5.574c-0.193-5.831-0.451-6.279-3.22-5.51zM53.386 11.646c-2.125 1.153-2.898 2.563-2.898 5.318 0 3.78 2.061 5.574 5.86 5.318 2.576-0.192 2.833-0.384 3.027-1.986s0.064-1.73-1.932-1.602c-2.061 0.192-2.125 0.064-2.125-2.050s0.129-2.243 1.996-2.050c1.546 0.128 2.125-0.128 2.383-1.089 0.129-0.641 0-1.538-0.386-1.922-0.902-0.897-4.25-0.897-5.925 0.064zM61.049 11.71c-0.193 0.513-0.258 3.011-0.129 5.638l0.193 4.741h4.186c3.864 0 4.186-0.128 4.379-1.474 0.193-1.217-0.064-1.41-2.060-1.41-1.288 0-2.319-0.32-2.319-0.641 0-0.384 0.902-0.641 1.932-0.641 1.481 0 1.932-0.256 1.932-1.281s-0.451-1.281-1.932-1.281c-1.030 0-1.932-0.32-1.932-0.641 0-0.384 0.837-0.641 1.868-0.641 1.804 0 3.027-1.41 2.254-2.627-0.58-0.961-7.985-0.705-8.372 0.256zM73.993 11.518c-2.125 0.833-2.962 2.307-3.027 4.998-0.065 4.613 1.803 6.215 6.633 5.767 1.868-0.128 2.189-0.448 2.189-1.794 0-1.41-0.257-1.602-2.061-1.41-1.546 0.128-2.125-0.064-2.447-1.089-0.58-1.986 0.644-3.588 2.705-3.588 1.224 0 1.868-0.384 1.996-1.217 0.451-2.050-2.833-3.011-5.989-1.666zM81.914 11.262c-0.323 0.256-0.515 2.883-0.515 5.831v5.382l2.060-0.192c1.61-0.128 2.19-0.577 2.512-1.794l0.386-1.602 0.515 1.73c0.387 1.474 0.837 1.794 2.512 1.794 2.769 0 3.091-0.448 1.932-2.691-0.708-1.41-0.837-2.114-0.322-2.627 0.837-0.833 0.902-3.652 0.129-4.87-0.644-1.025-8.371-1.858-9.208-0.961zM87.194 14.722c0 0.705-0.257 1.281-0.644 1.281-0.322 0-0.644-0.577-0.644-1.281s0.322-1.281 0.644-1.281c0.387 0 0.644 0.577 0.644 1.281zM93.441 11.326c-0.258 0.192-0.451 2.819-0.451 5.767v5.318h4.186c4.057 0 4.186-0.064 4.186-1.602 0-1.346-0.322-1.602-1.932-1.602-1.030 0-1.932-0.32-1.932-0.641 0-0.384 0.708-0.641 1.61-0.641 1.159 0 1.61-0.32 1.61-1.281s-0.451-1.281-1.61-1.281c-0.902 0-1.61-0.32-1.61-0.641 0-0.384 0.902-0.641 1.932-0.641 1.61 0 1.932-0.256 1.932-1.602 0-1.538-0.193-1.602-3.735-1.602-2.061 0-3.992 0.192-4.186 0.448zM106.45 11.262c-1.16 0.32-4.122 8.842-3.542 10.252 0.515 1.281 3.413 1.153 4.186-0.192 0.579-1.089 0.644-1.089 1.803 0 1.482 1.281 4.701 1.474 4.701 0.256 0-0.384-0.644-2.947-1.482-5.574-1.288-4.229-1.674-4.806-3.027-4.934-0.902 0-2.061 0.064-2.64 0.192zM108.253 17.093c-0.193 0.641-0.322 0.256-0.322-0.769 0-1.089 0.129-1.538 0.322-1.153 0.129 0.448 0.129 1.346 0 1.922zM115.723 11.326c-0.58 0.192-0.837 1.986-0.837 5.703v5.382h1.868c1.61 0 1.932-0.32 2.189-1.794 0.257-1.666 0.257-1.666 0.772-0.32 0.258 0.833 0.902 1.474 1.352 1.474 0.515 0 1.224-0.641 1.546-1.474 0.515-1.346 0.58-1.346 0.58 0.384 0.065 1.602 0.257 1.794 2.061 1.602l1.996-0.192 0.065-5.318c0.129-4.934 0.064-5.318-1.288-5.638-2.061-0.513-3.799 0.705-4.379 3.076l-0.451 2.114-0.708-2.243c-0.902-3.011-2.254-3.78-4.765-2.755zM9.016 11.967c-0.193 0.256-0.386 1.089-0.386 1.922 0 1.474 0.064 1.474 7.406 1.474s7.406 0 7.406-1.474c0-2.178-0.58-2.435-2.64-1.41-2.318 1.217-7.213 1.217-9.531 0-1.030-0.513-1.996-0.705-2.254-0.513zM7.148 17.669c-1.030 1.089 0.708 1.538 5.731 1.538h5.409v2.243c0 1.217 0.322 2.243 0.644 2.243 0.386 0 0.644-0.961 0.644-2.178 0-2.114 0.129-2.243 2.576-2.435 1.417-0.128 2.576-0.513 2.576-0.833 0-0.705-16.872-1.281-17.581-0.577z"></path>
        <path d="M8.629 23.308c0 3.524 1.224 4.229 7.406 4.229s7.406-0.705 7.406-4.229c0-1.538-0.322-2.178-0.966-2.178-0.58 0-0.966 0.577-0.966 1.538 0 3.588-4.894 3.908-5.603 0.384-0.322-1.858-0.515-1.922-3.8-1.922h-3.477v2.178zM12.622 30.548c0.386 2.050 6.955 1.858 6.955-0.128 0-0.705-0.837-0.961-3.606-0.961-3.027 0-3.542 0.192-3.349 1.089z"></path>
        </symbol>

        <symbol id="phone" viewBox="0 0 32 32">
            <path d="m27.419 20.852-4.201-.48c-1.009-.116-2.002.232-2.713.943l-3.044 3.044C12.78 21.977 8.942 18.156 6.56 13.458l3.06-3.06c.711-.711 1.059-1.704.943-2.713l-.48-4.168C9.885 1.846 8.479.589 6.791.589H3.929C2.06.589.505 2.144.621 4.013c.877 14.126 12.174 25.407 26.284 26.284 1.869.116 3.424-1.439 3.424-3.308v-2.861c.016-1.671-1.241-3.077-2.911-3.275z"/>
        </symbol>
        <symbol id="letter" viewBox="0 0 43 32">
            <path d="M37.333 0h-32c-2.2 0-3.98 1.8-3.98 4l-.02 24c0 2.2 1.8 4 4 4h32c2.2 0 4-1.8 4-4V4c0-2.2-1.8-4-4-4zm-.8 8.5-14.14 8.84c-.64.4-1.48.4-2.12 0L6.133 8.5c-.5-.32-.8-.86-.8-1.44 0-1.34 1.46-2.14 2.6-1.44l13.4 8.38 13.4-8.38c1.14-.7 2.6.1 2.6 1.44 0 .58-.3 1.12-.8 1.44z"/>
        </symbol>
    </defs>
</svg>